<svg width="256" height="289" viewBox="0 0 256 289" fill="none" xmlns="http://www.w3.org/2000/svg">
<path d="M87.3333 200.777C72.0275 186.371 63.024 166.564 63.024 144.055C63.024 121.546 72.0275 101.739 86.433 87.3333C99.0378 74.7285 99.0378 54.9209 86.433 42.3161C73.8282 29.7113 54.0206 29.7113 41.4158 42.3161C16.2062 68.4261 0 104.44 0 144.055C0 183.67 16.2062 219.684 42.3161 245.794C54.921 258.399 74.7285 258.399 87.3333 245.794C99.0378 233.189 99.0378 213.381 87.3333 200.777Z" fill="white"/>
<path d="M87.3333 87.3333C101.739 72.0275 121.546 63.024 144.055 63.024C166.564 63.024 186.371 72.0275 200.777 86.433C213.381 99.0378 233.189 99.0378 245.794 86.433C258.399 73.8282 258.399 54.0206 245.794 41.4158C219.684 16.2062 183.67 0 144.055 0C104.44 0 68.4261 16.2062 42.3161 42.3161C29.7113 54.921 29.7113 74.7285 42.3161 87.3333C54.9209 99.0378 74.7285 99.0378 87.3333 87.3333Z" fill="white"/>
<path d="M200.777 200.777C186.371 216.082 166.564 225.086 144.055 225.086C121.546 225.086 101.739 216.082 87.3333 201.677C74.7285 189.072 54.9209 189.072 42.3161 201.677C29.7113 214.282 29.7113 234.089 42.3161 246.694C68.4261 271.904 104.44 288.11 144.055 288.11C183.67 288.11 219.684 271.904 245.794 245.794C258.399 233.189 258.399 213.381 245.794 200.777C233.189 189.072 213.381 189.072 200.777 200.777Z" fill="white"/>
<path d="M64.8247 96.3368C82.2283 96.3368 96.3368 82.2283 96.3368 64.8247C96.3368 47.4211 82.2283 33.3127 64.8247 33.3127C47.4211 33.3127 33.3127 47.4211 33.3127 64.8247C33.3127 82.2283 47.4211 96.3368 64.8247 96.3368Z" fill="#010028"/>
<path d="M64.8247 254.797C82.2283 254.797 96.3368 240.689 96.3368 223.285C96.3368 205.882 82.2283 191.773 64.8247 191.773C47.4211 191.773 33.3127 205.882 33.3127 223.285C33.3127 240.689 47.4211 254.797 64.8247 254.797Z" fill="#010028"/>
</svg>
