<svg width="256" height="289" viewBox="0 0 256 289" fill="none" xmlns="http://www.w3.org/2000/svg">
<rect width="256" height="289" fill="#E5E5E5"/>
<path d="M62.524 144.055C62.524 166.697 71.581 186.631 86.9783 201.129C98.4911 213.54 98.4893 233.038 86.9731 245.447C74.5633 257.85 55.077 257.848 42.6697 245.44C16.6488 219.419 0.5 183.531 0.5 144.055C0.5 104.58 16.6483 68.6896 41.7724 42.6667C54.1821 30.2601 73.6709 30.2612 86.0794 42.6697C98.489 55.0792 98.489 74.5702 86.0794 86.9798C71.5842 101.475 62.524 121.408 62.524 144.055Z" fill="#190E42" stroke="black"/>
<path d="M87.3333 87.3333C101.739 72.0275 121.546 63.024 144.055 63.024C166.564 63.024 186.371 72.0275 200.777 86.433C213.381 99.0378 233.189 99.0378 245.794 86.433C258.399 73.8282 258.399 54.0206 245.794 41.4158C219.684 16.2062 183.67 0 144.055 0C104.44 0 68.4261 16.2062 42.3161 42.3161C29.7113 54.921 29.7113 74.7285 42.3161 87.3333C54.9209 99.0378 74.7285 99.0378 87.3333 87.3333Z" fill="#190E42"/>
<path d="M200.777 200.777C186.371 216.082 166.564 225.086 144.055 225.086C121.546 225.086 101.739 216.082 87.3333 201.677C74.7285 189.072 54.9209 189.072 42.3161 201.677C29.7113 214.282 29.7113 234.089 42.3161 246.694C68.4261 271.904 104.44 288.11 144.055 288.11C183.67 288.11 219.684 271.904 245.794 245.794C258.399 233.189 258.399 213.381 245.794 200.777C233.189 189.072 213.381 189.072 200.777 200.777Z" fill="#190E42"/>
<path d="M64.8247 96.3368C82.2283 96.3368 96.3368 82.2283 96.3368 64.8247C96.3368 47.4211 82.2283 33.3127 64.8247 33.3127C47.4211 33.3127 33.3127 47.4211 33.3127 64.8247C33.3127 82.2283 47.4211 96.3368 64.8247 96.3368Z" fill="#1B0E4F"/>
<path d="M64.8247 254.797C82.2283 254.797 96.3368 240.689 96.3368 223.285C96.3368 205.882 82.2283 191.773 64.8247 191.773C47.4211 191.773 33.3127 205.882 33.3127 223.285C33.3127 240.689 47.4211 254.797 64.8247 254.797Z" fill="#1B0E4F"/>
</svg>
