<svg width="1566" height="1121" viewBox="0 0 1566 1121" fill="none" xmlns="http://www.w3.org/2000/svg">
<g id="Group" filter="url(#filter0_d)">
<g id="Group_2">
<g id="Group_3" opacity="0.1" filter="url(#filter1_f)">
<g id="Group_4">
<path id="Vector" d="M604.852 209.949L1566.4 765.126L965.548 1112.02L4 556.869L604.852 209.949Z" fill="#428AE2"/>
</g>
</g>
<g id="Group_5">
<g id="Group_6">
<path id="Vector_2" d="M604.852 111.152L1566.4 666.329V694.385L965.548 1041.31L4 486.128V458.072L604.852 111.152Z" fill="white"/>
</g>
</g>
<g id="Group_7" opacity="0.4">
<g id="Group_8">
<path id="Vector_3" d="M965.561 964.403L46.2863 433.649L604.844 111.152L1524.12 641.906L965.561 964.403Z" fill="#428AE2"/>
</g>
</g>
<g id="Group_9" opacity="0.2">
<g id="Group_10">
<path id="Vector_4" d="M4.00073 486.143L965.549 1041.3V1013.24L4.00073 458.066V486.143Z" fill="#428AE2"/>
</g>
</g>
<g id="Group_11" opacity="0.3">
<g id="Group_12">
<path id="Vector_5" d="M1566.4 694.384L965.551 1041.3V1013.23L1566.4 666.328V694.384Z" fill="#428AE2"/>
</g>
</g>
<g id="Group_13">
<g id="Group_14">
<path id="Vector_6" d="M604.852 0L1566.4 555.177V583.233L965.548 930.132L4 374.976V346.92L604.852 0Z" fill="white"/>
</g>
</g>
<g id="Group_15" opacity="0.2">
<g id="Group_16">
<path id="Vector_7" d="M4.00073 374.969L965.549 930.144V902.09L4.00073 346.913V374.969Z" fill="#428AE2"/>
</g>
</g>
<g id="Group_17">
<g id="Group_18">
<path id="Vector_8" d="M807.921 821.061L965.547 912.075L1566.4 565.155L1408.77 474.162L807.921 821.061Z" fill="#0854CF"/>
</g>
</g>
<g id="Group_19" opacity="0.5">
<g id="Group_20">
<path id="Vector_9" d="M1374.72 562.283L1437.78 598.695L1500.82 562.283L1437.78 525.869L1374.72 562.283Z" fill="#428AE2"/>
</g>
</g>
<g id="Group_21" opacity="0.5">
<g id="Group_22">
<path id="Vector_10" d="M1311.82 561.681L1406.84 616.556L1415.24 611.705L1320.24 556.832L1311.82 561.681Z" fill="#428AE2"/>
</g>
</g>
<g id="Group_23" opacity="0.5">
<g id="Group_24">
<path id="Vector_11" d="M1317.95 587.535L1387.51 627.71L1395.92 622.859L1326.35 582.686L1317.95 587.535Z" fill="#428AE2"/>
</g>
</g>
<g id="Group_25" opacity="0.5">
<g id="Group_26">
<path id="Vector_12" d="M1263.81 578.599L1368.18 638.869L1376.6 634.018L1272.23 573.748L1263.81 578.599Z" fill="#428AE2"/>
</g>
</g>
<g id="Group_27" opacity="0.5">
<g id="Group_28">
<path id="Vector_13" d="M1265.5 601.898L1348.84 650.03L1357.27 645.179L1273.91 597.047L1265.5 601.898Z" fill="#428AE2"/>
</g>
</g>
<g id="Group_29">
<g id="Group_30">
<path id="Vector_14" d="M1566.4 583.244L965.551 930.143V902.087L1566.4 555.167V583.244Z" fill="#084BB5"/>
</g>
</g>
<g id="Group_31">
<g id="Group_32">
<path id="Vector_15" d="M807.921 811.065L965.547 902.079V930.135L807.921 839.142V811.065Z" fill="#084BB5"/>
</g>
</g>
<g id="Group_33">
<g id="Group_34">
<path id="Vector_16" d="M1374.72 548.817V556.881L1437.78 594.177L1500.82 556.881V548.817L1437.78 512.403L1374.72 548.817Z" fill="white"/>
</g>
</g>
<g id="Group_35" opacity="0.3">
<g id="Group_36">
<path id="Vector_17" d="M1437.78 839.308V848.275L1500.82 811V802.915L1437.78 839.308Z" fill="#428AE2"/>
</g>
</g>
<g id="Group_37" opacity="0.2">
<g id="Group_38">
<path id="Vector_18" d="M1374.72 548.815L1437.78 585.208V594.175L1374.72 556.9V548.815Z" fill="#428AE2"/>
</g>
</g>
<g id="Group_39">
<g id="Group_40">
<path id="Vector_19" d="M1273.91 583.577L1357.27 631.709V639.794L1348.84 644.645L1265.5 596.513V588.426L1273.91 583.577Z" fill="white"/>
</g>
</g>
<g id="Group_41">
<g id="Group_42">
<path id="Vector_20" d="M1272.23 560.283L1376.6 620.532V628.617L1368.18 633.489L1263.81 573.219V565.134L1272.23 560.283Z" fill="white"/>
</g>
</g>
<g id="Group_43">
<g id="Group_44">
<path id="Vector_21" d="M1326.35 569.222L1395.92 609.393V617.459L1387.51 622.31L1317.95 582.156V574.073L1326.35 569.222Z" fill="white"/>
</g>
</g>
<g id="Group_45">
<g id="Group_46">
<path id="Vector_22" d="M1320.24 543.366L1415.24 598.218V606.303L1406.84 611.154L1311.82 556.3V548.217L1320.24 543.366Z" fill="white"/>
</g>
</g>
<g id="Group_47" opacity="0.3">
<g id="Group_48">
<path id="Vector_23" d="M1406.84 857.168V865.253L1415.24 860.402V852.317L1406.84 857.168Z" fill="#428AE2"/>
</g>
</g>
<g id="Group_49" opacity="0.3">
<g id="Group_50">
<path id="Vector_24" d="M1387.51 614.233V622.32L1395.93 617.467V609.384L1387.51 614.233Z" fill="#428AE2"/>
</g>
</g>
<g id="Group_51" opacity="0.3">
<g id="Group_52">
<path id="Vector_25" d="M1368.18 625.391V633.476L1376.58 628.625V620.54L1368.18 625.391Z" fill="#428AE2"/>
</g>
</g>
<g id="Group_53" opacity="0.3">
<g id="Group_54">
<path id="Vector_26" d="M1348.85 636.557V644.642L1357.25 639.791V631.706L1348.85 636.557Z" fill="#428AE2"/>
</g>
</g>
<g id="Group_55" opacity="0.2">
<g id="Group_56">
<path id="Vector_27" d="M1311.82 548.218L1406.84 603.088V611.155L1311.82 556.3V548.218Z" fill="#428AE2"/>
</g>
</g>
<g id="Group_57" opacity="0.2">
<g id="Group_58">
<path id="Vector_28" d="M1317.95 574.073L1387.5 614.244V622.31L1317.95 582.156V574.073Z" fill="#428AE2"/>
</g>
</g>
<g id="Group_59" opacity="0.2">
<g id="Group_60">
<path id="Vector_29" d="M1263.81 565.134L1368.18 625.406V633.47L1263.81 573.219V565.134Z" fill="#428AE2"/>
</g>
</g>
<g id="Group_61" opacity="0.2">
<g id="Group_62">
<path id="Vector_30" d="M1265.49 588.437L1348.84 636.55V644.633L1265.49 596.524V588.437Z" fill="#428AE2"/>
</g>
</g>
<g id="Group_63" opacity="0.4">
<g id="Group_64">
<path id="Vector_31" d="M986.452 259.663L820.972 355.213L443.646 137.359L609.145 41.8088L986.452 259.663ZM820.976 356.154L821.163 356.028L988.094 259.659L987.483 259.323L609.149 40.8806L608.958 40.9856L442.031 137.376L442.638 137.712L820.976 356.154Z" fill="#428AE2"/>
</g>
</g>
<g id="Group_65" opacity="0.4">
<g id="Group_66">
<path id="Vector_32" d="M1348.04 468.427L813.673 776.938L481.789 585.313L1016.13 276.802L1348.04 468.427ZM813.671 777.879L813.881 777.753L1349.65 468.423L1349.05 468.066L1016.13 275.874L1015.92 275.979L480.149 585.33L480.758 585.666L813.671 777.879Z" fill="#428AE2"/>
</g>
</g>
<g id="Group_67" opacity="0.4">
<g id="Group_68">
<path id="Vector_33" d="M791.974 371.988L452.11 568.191L213.214 430.263L553.078 234.102L791.974 371.988ZM452.112 569.13L452.322 569.004L793.551 371.982L792.963 371.625L553.038 233.109L552.849 233.235L211.599 430.278L212.208 430.614L452.112 569.13Z" fill="#428AE2"/>
</g>
</g>
<g id="Group_69" opacity="0.2">
<g id="Group_70">
<path id="Vector_34" d="M356.304 199.55L451.329 254.423L459.729 249.551L364.725 194.699L356.304 199.55Z" fill="#428AE2"/>
</g>
</g>
<g id="Group_71" opacity="0.2">
<g id="Group_72">
<path id="Vector_35" d="M335.436 211.603L430.461 266.476L438.861 261.604L343.857 206.752L335.436 211.603Z" fill="#428AE2"/>
</g>
</g>
<g id="Group_73" opacity="0.2">
<g id="Group_74">
<path id="Vector_36" d="M314.568 223.647L409.593 278.522L417.993 273.671L322.989 218.798L314.568 223.647Z" fill="#428AE2"/>
</g>
</g>
<g id="Group_75" opacity="0.2">
<g id="Group_76">
<path id="Vector_37" d="M293.692 235.7L388.717 290.575L397.117 285.701L302.113 230.851L293.692 235.7Z" fill="#428AE2"/>
</g>
</g>
<g id="Group_77" opacity="0.2">
<g id="Group_78">
<path id="Vector_38" d="M272.825 247.745L367.85 302.597L376.25 297.746L281.246 242.896L272.825 247.745Z" fill="#428AE2"/>
</g>
</g>
<g id="Group_79" opacity="0.2">
<g id="Group_80">
<path id="Vector_39" d="M251.955 259.796L346.98 314.669L355.38 309.797L260.376 254.945L251.955 259.796Z" fill="#428AE2"/>
</g>
</g>
<g id="Group_81" opacity="0.2">
<g id="Group_82">
<path id="Vector_40" d="M231.087 271.84L326.112 326.715L334.512 321.864L239.508 266.991L231.087 271.84Z" fill="#428AE2"/>
</g>
</g>
<g id="Group_83" opacity="0.2">
<g id="Group_84">
<path id="Vector_41" d="M210.211 283.897L305.236 338.772L313.657 333.921L218.632 279.048L210.211 283.897Z" fill="#428AE2"/>
</g>
</g>
<g id="Group_85" opacity="0.2">
<g id="Group_86">
<path id="Vector_42" d="M189.343 295.949L284.368 350.824L292.768 345.95L197.764 291.1L189.343 295.949Z" fill="#428AE2"/>
</g>
</g>
<g id="Group_87" opacity="0.2">
<g id="Group_88">
<path id="Vector_43" d="M168.476 307.994L263.501 362.846L271.901 358.018L176.897 303.145L168.476 307.994Z" fill="#428AE2"/>
</g>
</g>
<g id="Group_89" opacity="0.2">
<g id="Group_90">
<path id="Vector_44" d="M147.606 320.045L242.631 374.918L251.031 370.046L156.027 315.194L147.606 320.045Z" fill="#428AE2"/>
</g>
</g>
<g id="Group_91" opacity="0.2">
<g id="Group_92">
<path id="Vector_45" d="M126.739 332.097L221.764 386.973L230.164 382.098L135.16 327.249L126.739 332.097Z" fill="#428AE2"/>
</g>
</g>
<g id="Group_93" opacity="0.2">
<g id="Group_94">
<path id="Vector_46" d="M105.87 344.142L200.895 399.015L209.295 394.164L114.291 339.291L105.87 344.142Z" fill="#428AE2"/>
</g>
</g>
<g id="Group_95" opacity="0.2">
<g id="Group_96">
<path id="Vector_47" d="M136.749 386.075L180.009 411.065L188.43 406.193L145.17 381.224L136.749 386.075Z" fill="#428AE2"/>
</g>
</g>
<g id="Group_97" opacity="0.2">
<g id="Group_98">
<path id="Vector_48" d="M569.877 579.861L830.256 730.2L836.556 726.567L576.177 576.228L569.877 579.861Z" fill="#428AE2"/>
</g>
</g>
<g id="Group_99" opacity="0.2">
<g id="Group_100">
<path id="Vector_49" d="M554.272 588.868L814.651 739.207L820.951 735.574L560.551 585.235L554.272 588.868Z" fill="#428AE2"/>
</g>
</g>
<g id="Group_101" opacity="0.2">
<g id="Group_102">
<path id="Vector_50" d="M654.262 664.626L799.057 748.225L805.336 744.594L660.562 660.993L654.262 664.626Z" fill="#428AE2"/>
</g>
</g>
<g id="Group_103" opacity="0.2">
<g id="Group_104">
<path id="Vector_51" d="M430.008 335.488L623.964 446.788L630.245 443.155L436.308 331.855L430.008 335.488Z" fill="#428AE2"/>
</g>
</g>
<g id="Group_105" opacity="0.2">
<g id="Group_106">
<path id="Vector_52" d="M414.406 344.497L608.362 455.797L614.643 452.164L420.685 340.864L414.406 344.497Z" fill="#428AE2"/>
</g>
</g>
<g id="Group_107" opacity="0.2">
<g id="Group_108">
<path id="Vector_53" d="M447.965 381.216L592.76 464.817L599.039 461.184L454.242 377.583L447.965 381.216Z" fill="#428AE2"/>
</g>
</g>
<g id="Group_109" opacity="0.4">
<g id="Group_110">
<path id="Vector_54" d="M735.958 499.859L973.951 637.26L991.297 627.245L753.304 489.84L735.958 499.859Z" fill="#428AE2"/>
</g>
</g>
<g id="Group_111" opacity="0.4">
<g id="Group_112">
<path id="Vector_55" d="M689.145 507.914L943.56 654.809L951.981 649.958L697.566 503.063L689.145 507.914Z" fill="#428AE2"/>
</g>
</g>
<g id="Group_113" opacity="0.4">
<g id="Group_114">
<path id="Vector_56" d="M729.066 555.06L922.686 666.864L931.107 661.992L737.466 550.209L729.066 555.06Z" fill="#428AE2"/>
</g>
</g>
<g id="Group_115">
<g id="Group_116">
<path id="Vector_57" d="M724.444 383.659C724.465 383.659 724.465 383.659 724.486 383.659C724.507 383.638 724.507 383.638 724.528 383.638C724.528 383.617 724.549 383.596 724.549 383.596C724.549 383.575 724.57 383.554 724.57 383.554V342.478C724.57 342.478 724.549 342.457 724.549 342.436L724.528 342.415C724.507 342.394 724.507 342.394 724.486 342.373C724.465 342.373 724.465 342.373 724.444 342.373C724.402 342.373 724.381 342.394 724.36 342.415C724.339 342.436 724.318 342.457 724.318 342.478V383.554C724.318 383.575 724.339 383.596 724.36 383.617C724.381 383.638 724.402 383.659 724.444 383.659Z" fill="#0080FF"/>
</g>
</g>
<g id="Group_117">
<g id="Group_118">
<path id="Vector_58" d="M675.673 355.494C675.694 355.494 675.736 355.494 675.757 355.473C675.778 355.452 675.799 355.412 675.799 355.391V296.799C675.799 296.757 675.778 296.738 675.757 296.717C675.736 296.696 675.715 296.673 675.673 296.673C675.631 296.673 675.61 296.696 675.589 296.717C675.568 296.738 675.547 296.757 675.547 296.799V355.391C675.547 355.412 675.568 355.452 675.589 355.473C675.61 355.494 675.652 355.494 675.673 355.494Z" fill="#0080FF"/>
</g>
</g>
<g id="Group_119">
<g id="Group_120">
<path id="Vector_59" d="M626.906 327.336C626.927 327.336 626.969 327.336 626.99 327.315C627.011 327.294 627.032 327.252 627.032 327.231V254.508C627.032 254.466 627.011 254.445 626.99 254.424C626.969 254.403 626.927 254.382 626.906 254.382C626.885 254.382 626.843 254.403 626.822 254.424C626.801 254.445 626.78 254.466 626.78 254.508V327.231C626.78 327.252 626.801 327.294 626.822 327.315C626.843 327.336 626.885 327.336 626.906 327.336Z" fill="#0080FF"/>
</g>
</g>
<g id="Group_121">
<g id="Group_122">
<path id="Vector_60" d="M578.133 299.194C578.154 299.194 578.196 299.173 578.217 299.152C578.238 299.131 578.259 299.11 578.259 299.068V237.202C578.259 237.202 578.238 237.181 578.238 237.16L578.217 237.139C578.196 237.118 578.196 237.118 578.175 237.097C578.154 237.097 578.133 237.097 578.133 237.097C578.091 237.097 578.07 237.118 578.049 237.139C578.028 237.16 578.007 237.181 578.007 237.202V299.068C578.007 299.11 578.028 299.131 578.049 299.152C578.07 299.173 578.091 299.194 578.133 299.194Z" fill="#0080FF"/>
</g>
</g>
<g id="Group_123">
<g id="Group_124">
<path id="Vector_61" d="M529.345 271.043C529.387 271.043 529.408 271.022 529.429 271.001C529.45 270.98 529.471 270.938 529.471 270.917V230.555C529.471 230.513 529.45 230.492 529.429 230.471C529.408 230.45 529.387 230.429 529.345 230.429C529.303 230.429 529.282 230.45 529.261 230.471C529.24 230.492 529.219 230.513 529.219 230.555V270.917C529.219 270.938 529.24 270.98 529.261 271.001C529.282 271.022 529.303 271.043 529.345 271.043Z" fill="#0080FF"/>
</g>
</g>
<g id="Group_125">
<g id="Group_126">
<path id="Vector_62" d="M729.641 386.789C729.683 386.789 729.725 386.768 729.767 386.747C729.809 386.726 729.828 386.705 729.849 386.663C729.87 386.642 729.891 386.6 729.891 386.579C729.891 386.537 729.891 386.516 729.891 386.474C729.87 386.453 729.849 386.432 729.828 386.411C729.828 386.369 729.788 386.348 729.767 386.348L523.358 267.194C523.316 267.173 523.253 267.173 523.19 267.173C523.127 267.194 523.064 267.236 523.022 267.299C523.022 267.32 522.999 267.341 522.999 267.383C522.999 267.404 522.999 267.446 522.999 267.467C523.02 267.509 523.02 267.53 523.041 267.551C523.062 267.572 523.085 267.593 523.127 267.614L729.555 386.747C729.576 386.768 729.62 386.789 729.641 386.789Z" fill="#0080FF"/>
</g>
</g>
<g id="Group_127">
<g id="Group_128">
<path id="Vector_63" d="M690.554 403.154C690.575 403.154 690.617 403.156 690.638 403.114C690.659 403.093 690.68 403.07 690.68 403.028V354.602C690.68 354.56 690.659 354.541 690.638 354.52C690.617 354.499 690.575 354.478 690.554 354.478C690.512 354.478 690.491 354.499 690.47 354.52C690.449 354.541 690.428 354.56 690.428 354.602V403.028C690.428 403.07 690.449 403.093 690.47 403.114C690.491 403.135 690.512 403.154 690.554 403.154Z" fill="#0080FF"/>
</g>
</g>
<g id="Group_129">
<g id="Group_130">
<path id="Vector_64" d="M641.784 375.003C641.805 375.003 641.847 374.982 641.868 374.961C641.889 374.94 641.91 374.896 641.91 374.875V311.686C641.91 311.644 641.889 311.625 641.868 311.604C641.847 311.583 641.805 311.56 641.784 311.56C641.763 311.56 641.721 311.583 641.7 311.604C641.679 311.625 641.658 311.644 641.658 311.686V374.875C641.658 374.896 641.679 374.94 641.7 374.961C641.721 374.982 641.763 375.003 641.784 375.003Z" fill="#0080FF"/>
</g>
</g>
<g id="Group_131">
<g id="Group_132">
<path id="Vector_65" d="M593.011 346.839C593.053 346.839 593.074 346.818 593.095 346.797C593.116 346.776 593.137 346.755 593.137 346.713V311.688C593.137 311.646 593.116 311.622 593.095 311.601C593.074 311.58 593.053 311.559 593.011 311.559C592.99 311.559 592.948 311.58 592.927 311.601C592.906 311.622 592.885 311.646 592.885 311.688V346.713C592.885 346.755 592.906 346.776 592.927 346.797C592.948 346.818 592.99 346.839 593.011 346.839Z" fill="#0080FF"/>
</g>
</g>
<g id="Group_133">
<g id="Group_134">
<path id="Vector_66" d="M544.24 318.687C544.282 318.687 544.303 318.664 544.324 318.643C544.345 318.622 544.366 318.582 544.366 318.561V269.505C544.366 269.463 544.345 269.44 544.324 269.419C544.303 269.398 544.282 269.379 544.24 269.379C544.198 269.379 544.177 269.398 544.156 269.419C544.135 269.44 544.114 269.463 544.114 269.505V318.561C544.114 318.582 544.135 318.622 544.156 318.643C544.177 318.664 544.198 318.687 544.24 318.687Z" fill="#0080FF"/>
</g>
</g>
<g id="Group_135">
<g id="Group_136">
<path id="Vector_67" d="M495.439 290.522C495.481 290.522 495.502 290.524 495.523 290.503C495.544 290.461 495.565 290.438 495.565 290.417V256.714C495.565 256.672 495.544 256.649 495.523 256.628C495.502 256.607 495.481 256.586 495.439 256.586C495.418 256.586 495.376 256.607 495.355 256.628C495.334 256.649 495.313 256.672 495.313 256.714V290.377C495.313 290.398 495.313 290.419 495.313 290.44C495.334 290.44 495.334 290.459 495.355 290.48C495.355 290.501 495.376 290.501 495.397 290.522C495.397 290.522 495.418 290.522 495.439 290.522Z" fill="#0080FF"/>
</g>
</g>
<g id="Group_137">
<g id="Group_138">
<path id="Vector_68" d="M695.75 406.272C695.792 406.272 695.834 406.272 695.876 406.251C695.918 406.23 695.939 406.188 695.96 406.167C695.981 406.125 695.981 406.104 695.981 406.062C696.002 406.041 696.002 406.02 695.981 405.978C695.981 405.957 695.96 405.915 695.939 405.894C695.939 405.873 695.897 405.852 695.876 405.831L489.467 286.656C489.425 286.635 489.362 286.635 489.299 286.635C489.236 286.656 489.173 286.698 489.152 286.761C489.131 286.782 489.11 286.803 489.11 286.845C489.11 286.866 489.11 286.908 489.11 286.929C489.131 286.971 489.152 286.992 489.152 287.013C489.173 287.034 489.215 287.055 489.236 287.076L695.645 406.251C695.687 406.272 695.708 406.272 695.75 406.272Z" fill="#0080FF"/>
</g>
</g>
<g id="Group_139">
<g id="Group_140">
<path id="Vector_69" d="M656.98 422.634C657.001 422.634 657.001 422.634 657.022 422.634C657.043 422.634 657.043 422.613 657.064 422.613C657.064 422.592 657.085 422.592 657.085 422.571C657.085 422.55 657.106 422.529 657.106 422.529V386.577C657.106 386.556 657.085 386.535 657.085 386.535C657.085 386.514 657.064 386.493 657.064 386.493C657.043 386.472 657.043 386.472 657.022 386.451C657.001 386.451 657.001 386.451 656.98 386.451C656.938 386.451 656.917 386.472 656.896 386.493C656.875 386.514 656.854 386.535 656.854 386.577V422.529C656.854 422.529 656.854 422.55 656.875 422.571C656.875 422.592 656.875 422.592 656.896 422.613C656.896 422.613 656.917 422.634 656.938 422.634C656.938 422.634 656.959 422.634 656.98 422.634Z" fill="#0080FF"/>
</g>
</g>
<g id="Group_141">
<g id="Group_142">
<path id="Vector_70" d="M608.209 394.486C608.23 394.486 608.272 394.486 608.293 394.465C608.314 394.444 608.335 394.402 608.335 394.381V358.996C608.335 358.954 608.314 358.933 608.293 358.912C608.272 358.891 608.23 358.87 608.209 358.87C608.167 358.87 608.146 358.891 608.125 358.912C608.104 358.933 608.083 358.954 608.083 358.996V394.381C608.083 394.402 608.104 394.444 608.125 394.465C608.146 394.486 608.188 394.486 608.209 394.486Z" fill="#0080FF"/>
</g>
</g>
<g id="Group_143">
<g id="Group_144">
<path id="Vector_71" d="M559.436 366.333C559.478 366.333 559.499 366.312 559.52 366.291C559.541 366.27 559.562 366.249 559.562 366.207V337.311C559.562 337.269 559.541 337.248 559.52 337.227C559.499 337.206 559.478 337.185 559.436 337.185C559.415 337.185 559.373 337.206 559.352 337.227C559.331 337.248 559.31 337.269 559.31 337.311V366.207C559.31 366.249 559.331 366.27 559.352 366.312C559.373 366.333 559.415 366.333 559.436 366.333Z" fill="#0080FF"/>
</g>
</g>
<g id="Group_145">
<g id="Group_146">
<path id="Vector_72" d="M510.669 338.18C510.69 338.18 510.69 338.182 510.711 338.161C510.732 338.161 510.732 338.161 510.753 338.14C510.753 338.14 510.774 338.119 510.774 338.098C510.774 338.098 510.795 338.075 510.795 338.054V303.824C510.795 303.803 510.774 303.782 510.774 303.761C510.774 303.761 510.774 303.742 510.753 303.742C510.732 303.721 510.732 303.719 510.711 303.698C510.69 303.698 510.69 303.698 510.669 303.698C510.648 303.698 510.627 303.698 510.627 303.698C510.606 303.719 510.585 303.721 510.585 303.742C510.564 303.742 510.564 303.763 510.564 303.784C510.543 303.784 510.543 303.803 510.543 303.824V338.054C510.543 338.096 510.564 338.119 510.585 338.14C510.606 338.161 510.627 338.18 510.669 338.18Z" fill="#0080FF"/>
</g>
</g>
<g id="Group_147">
<g id="Group_148">
<path id="Vector_73" d="M461.897 309.98C461.939 309.98 461.96 309.98 461.981 309.959C462.002 309.938 462.023 309.896 462.023 309.875V276.233C462.023 276.191 462.002 276.17 461.981 276.149C461.96 276.128 461.939 276.107 461.897 276.107C461.855 276.107 461.834 276.128 461.813 276.149C461.792 276.17 461.771 276.191 461.771 276.233V309.896C461.792 309.917 461.792 309.938 461.813 309.959C461.834 309.98 461.876 309.98 461.897 309.98Z" fill="#0080FF"/>
</g>
</g>
<g id="Group_149">
<g id="Group_150">
<path id="Vector_74" d="M531.666 226.106C531.582 225.35 531.351 224.636 530.973 223.985C530.595 223.334 530.091 222.767 529.482 222.326C529.566 223.061 529.797 223.796 530.154 224.447C530.532 225.098 531.036 225.644 531.645 226.106H531.666ZM565.571 214.972C565.487 214.216 565.256 213.502 564.878 212.851C564.5 212.2 563.996 211.633 563.387 211.192C563.471 211.948 563.702 212.662 564.08 213.313C564.437 213.964 564.941 214.51 565.55 214.972H565.571ZM618.05 234.298C617.966 233.542 617.714 232.828 617.336 232.177C616.958 231.526 616.454 230.959 615.845 230.518C615.929 231.274 616.181 231.988 616.559 232.639C616.937 233.29 617.441 233.857 618.05 234.298ZM669.174 291.265C669.069 290.53 668.838 289.816 668.46 289.165C668.082 288.514 667.578 287.947 666.969 287.506C667.053 288.241 667.305 288.976 667.683 289.627C668.061 290.257 668.565 290.824 669.174 291.265ZM726.147 338.406C726.063 337.671 725.832 336.936 725.454 336.285C725.076 335.634 724.572 335.067 723.963 334.626C724.047 335.382 724.278 336.096 724.656 336.747C725.034 337.398 725.538 337.965 726.147 338.406ZM525.009 217.683L527.634 216.15C528.726 215.52 530.238 215.604 531.897 216.57C534.396 218.187 536.265 220.581 537.21 223.395C538.554 223.332 539.856 223.017 541.074 222.429C543.258 220.791 545.316 218.964 547.227 216.99C549.642 214.596 551.994 212.307 554.493 211.005L553.968 211.278L556.488 209.808L556.614 209.745C556.824 209.619 557.055 209.493 557.265 209.388C557.307 208.8 557.475 208.254 557.79 207.75C558.084 207.246 558.504 206.826 559.008 206.511H558.945L561.318 205.146L561.57 204.978C562.662 204.348 564.174 204.432 565.812 205.398C567.576 206.553 569.025 208.086 570.075 209.913C571.104 211.74 571.692 213.798 571.776 215.898C574.338 219.489 576.417 223.857 578.412 228.141C581.877 235.491 585.132 242.4 590.634 245.592C591.222 245.97 591.894 246.222 592.587 246.348C593.28 246.453 593.994 246.432 594.666 246.264C596.514 244.647 598.173 242.085 599.895 239.439C602.226 235.848 604.62 232.215 607.686 230.493L607.581 230.556L609.639 229.338C609.723 227.637 610.374 226.44 611.382 225.852L614.007 224.34C615.099 223.71 616.611 223.794 618.27 224.76C621.546 226.65 624.234 231.291 624.192 235.512C628.413 241.917 630.975 251.661 633.474 261.132C636.288 271.863 639.207 282.972 643.764 285.597C648.972 288.6 651.786 287.34 655.062 285.87C657.015 284.841 659.157 284.274 661.341 284.169C661.635 283.56 662.139 283.056 662.748 282.762L662.517 282.846L665.163 281.313C666.255 280.683 667.746 280.788 669.426 281.733C671.127 282.846 672.576 284.358 673.605 286.143C674.634 287.907 675.243 289.902 675.369 291.939C679.653 296.853 683.349 303.615 687.003 310.251C691.581 318.63 695.886 326.526 700.527 329.193C705.357 331.986 708.234 331.461 711.573 330.873C713.946 330.327 716.403 330.222 718.818 330.579C719.133 330.222 719.532 329.949 719.973 329.781C719.826 329.844 719.679 329.907 719.532 329.991L721.905 328.605L722.178 328.458C723.27 327.828 724.782 327.912 726.441 328.878C728.163 329.991 729.612 331.524 730.641 333.309C731.691 335.115 732.279 337.131 732.384 339.189C732.384 341.079 731.712 342.423 730.641 343.032L728.142 344.481L728.016 344.565C726.924 345.216 725.412 345.132 723.753 344.166C721.107 342.444 719.154 339.84 718.251 336.837C715.815 336.312 713.295 336.354 710.88 336.942C707.394 337.572 703.782 338.223 697.881 334.821C691.728 331.272 686.667 322.032 681.753 313.086C678.519 307.227 675.285 301.263 671.757 297L670.959 297.441C670.959 297.441 671.001 297.399 671.022 297.378C669.93 298.071 668.397 298.008 666.696 297.042C664.239 295.446 662.391 293.094 661.425 290.322C658.8 290.007 656.805 290.889 654.747 291.813C651.429 293.325 647.67 295.047 641.097 291.225C634.062 287.172 630.87 274.992 627.489 262.161C625.347 253.992 623.142 245.655 620.139 240.3L619.824 240.468L620.118 240.279C619.026 241.098 617.388 241.098 615.582 240.069C613.545 238.788 611.949 236.961 610.92 234.777C609.051 236.457 607.35 239.04 605.628 241.686C603.444 245.046 601.218 248.448 598.425 250.086L595.8 251.619L595.926 251.514C593.7 252.879 591.138 253.089 587.925 251.241C580.659 247.041 576.522 238.263 572.868 230.535C571.398 227.196 569.718 223.962 567.849 220.833L567.324 221.127C566.232 221.778 564.72 221.694 563.061 220.728C560.835 219.321 559.113 217.263 558.105 214.806C557.958 214.869 557.811 214.932 557.664 214.995C555.9 216.402 554.199 217.914 552.624 219.531C550.209 221.904 547.689 224.382 544.854 226.062L542.208 227.595C540.675 228.519 538.995 229.128 537.231 229.401C536.958 229.968 536.538 230.451 536.013 230.787L533.367 232.32C533.451 232.257 533.514 232.194 533.598 232.131C532.485 232.95 530.91 232.95 529.125 231.9C527.382 230.766 525.933 229.254 524.904 227.448C523.875 225.663 523.266 223.647 523.161 221.589C523.245 219.636 523.917 218.313 525.009 217.683Z" fill="#FF906B"/>
</g>
</g>
<g id="Group_151">
<g id="Group_152">
<path id="Vector_75" d="M529.24 227.797C530.584 228.595 531.676 227.944 531.676 226.39C531.634 225.55 531.384 224.731 530.964 223.996C530.544 223.261 529.954 222.631 529.24 222.169C527.896 221.371 526.827 222.043 526.827 223.576C526.869 224.416 527.1 225.235 527.52 225.97C527.94 226.705 528.507 227.314 529.221 227.797H529.24ZM563.149 216.655C564.514 217.453 565.583 216.802 565.583 215.248C565.541 214.408 565.289 213.589 564.869 212.854C564.449 212.119 563.863 211.51 563.149 211.048C561.805 210.229 560.732 210.88 560.732 212.434C560.774 213.274 561.005 214.093 561.425 214.828C561.845 215.563 562.433 216.193 563.126 216.655H563.149ZM615.622 235.969C616.966 236.788 618.039 236.137 618.039 234.583C617.997 233.743 617.766 232.924 617.346 232.189C616.926 231.454 616.336 230.845 615.622 230.383C614.278 229.564 613.207 230.215 613.165 231.769C613.207 232.609 613.461 233.428 613.902 234.163C614.322 234.898 614.908 235.507 615.622 235.969ZM666.736 292.948C668.08 293.767 669.172 293.116 669.172 291.562C669.13 290.722 668.88 289.903 668.46 289.168C668.04 288.433 667.45 287.803 666.736 287.362C665.392 286.543 664.321 287.194 664.321 288.748C664.363 289.588 664.615 290.407 665.035 291.142C665.455 291.877 666.043 292.486 666.736 292.948ZM723.721 340.099C725.086 340.897 726.157 340.246 726.157 338.692C726.115 337.852 725.865 337.033 725.445 336.298C725.025 335.563 724.435 334.954 723.721 334.471C722.377 333.673 721.308 334.345 721.308 335.878C721.35 336.718 721.6 337.537 722.02 338.272C722.44 339.007 723.028 339.637 723.721 340.099ZM529.255 218.104C531.733 219.721 533.602 222.136 534.568 224.929C539.272 224.782 543.306 220.855 547.212 216.991C550.488 213.757 553.68 210.67 557.187 210.04C557.355 206.512 559.978 205.126 563.149 206.974C564.913 208.108 566.362 209.662 567.412 211.489C568.441 213.316 569.029 215.374 569.113 217.474C571.675 221.065 573.756 225.433 575.772 229.717C579.195 237.067 582.471 243.976 587.973 247.168C593.034 250.087 596.373 244.921 599.922 239.482C602.715 235.177 605.569 230.788 609.601 229.738C609.601 225.937 612.31 224.425 615.607 226.315C618.904 228.226 621.571 232.846 621.55 237.067C625.75 243.535 628.312 253.216 630.811 262.687C633.625 273.439 636.565 284.527 641.101 287.173C646.33 290.176 649.123 288.916 652.399 287.425C654.73 286.396 657.25 285.262 660.799 285.913C661.177 282.721 663.697 281.545 666.763 283.309C668.485 284.422 669.913 285.934 670.942 287.698C671.971 289.483 672.582 291.457 672.729 293.515C676.992 298.429 680.709 305.191 684.342 311.827C688.92 320.206 693.225 328.102 697.866 330.769C702.717 333.562 705.573 333.037 708.912 332.428C711.873 331.714 714.939 331.756 717.879 332.533C718.425 329.719 720.859 328.753 723.736 330.433C725.479 331.567 726.928 333.079 727.957 334.885C728.986 336.67 729.595 338.686 729.7 340.744C729.7 344.545 727.014 346.078 723.717 344.167C721.071 342.466 719.139 339.862 718.236 336.838C715.8 336.313 713.278 336.355 710.842 336.943C707.356 337.573 703.746 338.245 697.866 334.843C691.692 331.294 686.631 322.033 681.717 313.087C678.483 307.186 675.165 301.18 671.637 296.896C670.545 298.072 668.737 298.219 666.7 297.043C664.243 295.468 662.397 293.095 661.431 290.344C658.806 290.008 656.809 290.911 654.751 291.835C651.433 293.326 647.676 295.069 641.124 291.226C634.068 287.194 630.874 275.014 627.493 262.162C625.351 253.993 623.148 245.635 620.124 240.301C619.032 241.099 617.392 241.099 615.586 240.091C613.528 238.789 611.89 236.899 610.882 234.694C607.879 235.744 605.485 239.419 603.007 243.241C599.101 249.205 595.092 255.4 587.931 251.242C580.77 247.105 576.528 238.285 572.874 230.536C571.404 227.176 569.722 223.942 567.832 220.792C566.719 221.8 565.018 221.842 563.107 220.75C560.881 219.322 559.138 217.264 558.13 214.828C555.484 215.71 552.798 218.356 550.068 221.086C545.826 225.265 541.122 229.843 535.137 229.465C534.696 232.51 532.195 233.602 529.213 231.88C527.47 230.767 526.021 229.234 524.992 227.449C523.963 225.643 523.354 223.627 523.249 221.569C523.249 217.747 525.937 216.214 529.255 218.104Z" fill="#FF6D3F"/>
</g>
</g>
<g id="Group_153">
<g id="Group_154">
<path id="Vector_76" d="M497.746 252.527C497.662 251.771 497.431 251.057 497.053 250.406C496.675 249.755 496.171 249.188 495.562 248.747C495.646 249.503 495.877 250.217 496.255 250.868C496.633 251.519 497.137 252.086 497.746 252.527ZM558.646 275.352C558.562 274.617 558.331 273.903 557.953 273.252C557.575 272.601 557.071 272.034 556.462 271.593C556.546 272.328 556.798 273.063 557.155 273.714C557.533 274.344 558.037 274.911 558.646 275.352ZM626.959 273.065C626.875 272.309 626.644 271.595 626.266 270.944C625.888 270.293 625.384 269.726 624.775 269.285C624.859 270.041 625.09 270.755 625.468 271.406C625.846 272.057 626.35 272.624 626.959 273.065ZM692.292 351.112C692.208 350.356 691.977 349.642 691.599 348.991C691.221 348.34 690.717 347.773 690.108 347.332C690.192 348.088 690.423 348.802 690.801 349.453C691.179 350.104 691.704 350.671 692.292 351.112ZM491.11 244.119L493.714 242.586C494.806 241.956 496.318 242.04 497.977 243.006C499.72 244.14 501.171 245.694 502.221 247.5C503.25 249.306 503.836 251.343 503.941 253.422C504.361 253.926 504.802 254.409 505.222 254.934C508.939 259.323 513.559 264.762 523.051 270.264C529.456 273.96 532.879 272.49 536.533 270.39C536.953 270.159 537.331 269.907 537.772 269.655C541.195 267.681 545.04 265.686 551.445 267.45C551.718 267.156 552.073 266.925 552.451 266.778C552.283 266.841 552.136 266.904 551.989 266.988L554.635 265.455C555.727 264.825 557.218 264.909 558.877 265.875C561.733 267.492 564.129 271.23 564.696 274.653C570.828 279.714 574.333 285.783 577.483 291.264C581.305 297.921 584.917 304.179 593.065 308.883C593.674 309.303 594.369 309.576 595.083 309.702C595.818 309.828 596.551 309.828 597.265 309.66C600.94 306.237 603.609 298.11 606.213 290.151C609.258 280.932 612.343 271.482 617.404 268.815L617.133 268.941L618.582 268.143C618.687 266.442 619.336 265.245 620.365 264.678L622.99 263.166C624.082 262.536 625.573 262.62 627.232 263.586C628.891 264.657 630.298 266.106 631.327 267.807C632.356 269.487 632.988 271.398 633.177 273.372C639.183 281.541 642.858 295.548 646.701 310.185C651.195 327.363 655.857 345.129 663.795 349.707C669.192 352.815 672.676 352.941 675.364 351.891C676.12 351.324 676.834 350.673 677.548 350.043C678.619 349.014 679.795 348.111 681.076 347.355L680.826 347.481L683.47 345.948C683.638 345.843 683.827 345.759 683.995 345.675C684.037 345.087 684.207 344.499 684.501 343.995C684.816 343.491 685.213 343.05 685.717 342.735L686.641 342.189L686.914 342.042L688.216 341.265C688.216 341.265 688.323 341.181 688.365 341.181C689.457 340.551 690.948 340.656 692.607 341.601C694.35 342.735 695.797 344.268 696.826 346.053C697.855 347.859 698.466 349.875 698.571 351.933C698.571 353.823 697.899 355.167 696.807 355.755L694.182 357.288C693.09 357.939 691.576 357.855 689.917 356.889C687.733 355.503 686.032 353.487 685.003 351.114C684.877 351.135 684.751 351.177 684.604 351.219C684.079 351.639 683.556 352.122 682.989 352.626C681.834 353.718 680.553 354.705 679.188 355.566L676.563 357.099L676.752 356.973C673.434 358.968 668.877 359.766 661.17 355.293C650.712 349.287 645.649 329.904 640.735 311.172C637.501 298.782 634.162 286.14 629.626 278.79L628.828 279.252C628.849 279.231 628.893 279.21 628.914 279.189C627.822 279.882 626.289 279.819 624.588 278.853C622.635 277.614 621.058 275.85 620.029 273.771C616.963 277.53 614.592 284.733 612.282 291.81C609.258 301.05 606.148 310.521 601.108 313.461L598.464 314.994H598.527C596.28 316.317 593.674 316.38 590.44 314.532C580.843 308.988 576.328 301.176 572.359 294.267C569.524 289.332 566.775 284.628 562.239 280.575L561.796 280.848L560.473 281.646C560.536 281.646 560.559 281.583 560.601 281.541C559.509 282.276 557.955 282.234 556.233 281.226C553.566 279.504 551.611 276.858 550.729 273.792C544.87 271.86 541.447 273.456 538.066 275.409L536.913 276.081L537.27 275.871C533.112 278.286 528.805 280.827 520.447 275.976C510.073 270.012 504.802 263.796 500.959 259.26C500.728 258.966 500.497 258.693 500.266 258.462L499.573 258.861C499.573 258.861 499.617 258.819 499.638 258.798C498.546 259.47 497.034 259.428 495.333 258.441C493.59 257.307 492.139 255.795 491.11 253.989C490.081 252.204 489.472 250.188 489.367 248.109C489.346 246.072 490.039 244.728 491.11 244.119Z" fill="#5DA5FD"/>
</g>
</g>
<g id="Group_155">
<g id="Group_156">
<path id="Vector_77" d="M495.343 254.212C496.687 255.01 497.781 254.359 497.781 252.826C497.739 251.965 497.487 251.146 497.067 250.411C496.647 249.676 496.057 249.067 495.343 248.605C493.999 247.786 492.93 248.458 492.93 249.991C492.972 250.831 493.203 251.65 493.623 252.385C494.043 253.12 494.631 253.75 495.324 254.212H495.343ZM556.243 277.035C557.608 277.854 558.681 277.203 558.681 275.649C558.639 274.809 558.387 273.99 557.967 273.255C557.547 272.52 556.957 271.89 556.243 271.449C554.899 270.63 553.83 271.281 553.83 272.835C553.872 273.675 554.103 274.494 554.523 275.229C554.943 275.964 555.531 276.573 556.224 277.035H556.243ZM624.556 274.75C625.921 275.548 626.992 274.897 626.992 273.364C626.95 272.503 626.7 271.684 626.28 270.949C625.86 270.214 625.27 269.605 624.556 269.122C623.212 268.324 622.143 268.996 622.143 270.529C622.185 271.369 622.416 272.188 622.836 272.923C623.256 273.658 623.844 274.288 624.537 274.75H624.556ZM689.9 352.796C691.244 353.594 692.336 352.943 692.336 351.389C692.294 350.549 692.04 349.73 691.62 348.995C691.2 348.26 690.614 347.651 689.9 347.168C688.556 346.37 687.485 347.042 687.485 348.575C687.527 349.415 687.756 350.234 688.176 350.969C688.596 351.683 689.186 352.313 689.879 352.775L689.9 352.796ZM495.362 244.535C497.105 245.669 498.554 247.202 499.583 249.029C500.633 250.835 501.219 252.872 501.303 254.951C501.744 255.434 502.166 255.938 502.607 256.463C506.324 260.831 510.942 266.291 520.434 271.793C527.322 275.762 530.768 273.767 534.758 271.436C538.538 269.21 542.778 266.795 550.401 269.462C550.989 266.69 553.406 265.745 556.262 267.404C559.118 269.042 561.51 272.738 562.077 276.182C568.209 281.243 571.716 287.312 574.866 292.793C578.688 299.429 582.302 305.708 590.45 310.412C598.136 314.864 602.252 302.285 606.221 290.147C609.455 280.235 612.794 270.05 618.569 268.349C618.674 264.695 621.32 263.246 624.575 265.115C626.234 266.207 627.618 267.656 628.647 269.336C629.676 271.037 630.306 272.948 630.516 274.922C636.501 283.07 640.199 297.077 644.021 311.735C648.515 328.913 653.177 346.679 661.115 351.257C670.271 356.528 673.944 353.252 677.514 350.06C679.383 348.38 681.296 346.7 683.9 346.448C683.984 342.773 686.651 341.282 689.906 343.172C691.649 344.306 693.077 345.818 694.127 347.624C695.156 349.409 695.744 351.425 695.87 353.483C695.87 357.263 693.161 358.817 689.864 356.906C687.68 355.52 685.979 353.504 684.971 351.11C683.27 351.53 681.882 352.727 680.307 354.155C676.59 357.473 671.993 361.589 661.115 355.31C650.678 349.304 645.596 329.921 640.682 311.189C637.448 298.736 634.065 285.968 629.508 278.681C628.437 279.899 626.591 280.046 624.533 278.87C622.391 277.505 620.711 275.552 619.682 273.263C615.398 275.573 612.416 284.561 609.581 293.36C605.213 306.674 600.698 320.45 590.408 314.507C580.79 308.963 576.296 301.151 572.327 294.242C569.387 289.139 566.55 284.267 561.72 280.109C560.817 282.083 558.675 282.608 556.197 281.159C553.53 279.437 551.579 276.791 550.676 273.725C544.376 271.646 540.867 273.662 537.234 275.783C533.076 278.198 528.773 280.739 520.394 275.888C510.02 269.924 504.77 263.708 500.927 259.172L500.127 258.248C499.035 259.361 497.25 259.487 495.276 258.332C493.533 257.198 492.086 255.665 491.057 253.88C490.028 252.074 489.419 250.058 489.314 248C489.356 244.157 492.065 242.624 495.362 244.535Z" fill="#2A72CA"/>
</g>
</g>
<g id="Group_157">
<g id="Group_158">
<path id="Vector_78" d="M464.118 273.648C464.013 272.913 463.782 272.199 463.404 271.548C463.026 270.897 462.522 270.33 461.913 269.889C461.997 270.624 462.249 271.359 462.627 272.01C462.984 272.64 463.509 273.207 464.118 273.648ZM535.329 307.227C535.245 306.471 534.993 305.757 534.615 305.106C534.237 304.455 533.733 303.888 533.124 303.447C533.208 304.203 533.46 304.917 533.838 305.568C534.216 306.219 534.72 306.765 535.329 307.227ZM587.18 324.754C587.096 323.998 586.844 323.284 586.466 322.633C586.088 321.982 585.584 321.415 584.975 320.974C585.059 321.73 585.311 322.444 585.689 323.095C586.067 323.746 586.571 324.313 587.18 324.754ZM658.632 384.875C658.527 384.14 658.296 383.426 657.918 382.775C657.54 382.124 657.036 381.557 656.427 381.116C656.511 381.851 656.742 382.586 657.12 383.237C657.498 383.888 658.023 384.434 658.632 384.875ZM457.507 265.244L460.132 263.711C461.224 263.081 462.736 263.165 464.395 264.131C466.138 265.265 467.566 266.798 468.616 268.583C469.645 270.389 470.254 272.384 470.359 274.463C470.359 274.694 470.359 274.904 470.359 275.135C472.081 277.088 474.097 278.789 476.323 280.154C479.221 281.834 481.594 281.981 484.009 282.107C486.424 282.233 489.112 282.401 492.262 284.207C497.029 286.958 499.822 290.801 502.3 294.161C504.778 297.542 506.878 300.398 510.889 302.729C514.333 304.703 516.895 303.317 519.856 301.7C522.271 300.398 524.833 299.012 528.256 299.222C528.55 298.928 528.907 298.697 529.306 298.571C529.117 298.634 528.928 298.718 528.76 298.802L531.406 297.269C532.477 296.639 533.989 296.723 535.648 297.689C538.609 299.411 541.066 303.338 541.528 306.887C544.993 310.835 547.597 315.749 550.012 320.243C553.54 326.795 556.564 332.444 561.415 335.237C561.961 335.594 562.57 335.825 563.2 335.93C563.83 336.035 564.481 336.014 565.111 335.846C566.854 334.313 568.492 331.877 570.151 329.399C572.713 325.535 575.338 321.608 578.845 320.159C578.467 320.306 578.11 320.495 577.774 320.684L578.845 320.075C578.845 318.227 579.538 316.946 580.609 316.337L583.213 314.804C584.305 314.174 585.817 314.258 587.476 315.224C589.156 316.337 590.584 317.828 591.592 319.592C592.621 321.335 593.23 323.309 593.356 325.325C596.779 329.441 599.404 334.817 601.945 340.067C605.473 347.333 608.812 354.179 613.915 357.14C619.963 360.605 625.318 359.261 630.064 358.085C634.201 357.056 638.086 356.069 642.055 358.358C646.906 361.172 652.114 368.669 655.705 374.633C656.818 374.528 657.952 374.801 658.876 375.431C660.619 376.565 662.068 378.077 663.097 379.883C664.126 381.668 664.735 383.684 664.84 385.763C664.84 387.653 664.168 388.976 663.097 389.585L660.451 391.118C659.359 391.769 657.847 391.685 656.188 390.719C654.445 389.585 652.996 388.073 651.967 386.267C650.938 384.482 650.329 382.466 650.224 380.408C650.203 379.568 650.392 378.749 650.728 377.972C647.41 372.47 643 366.149 639.43 364.049C636.595 362.432 633.151 363.251 629.497 364.196C624.331 365.477 618.493 366.947 611.311 362.81C604.465 358.862 600.433 350.588 596.548 342.566C594.385 338.135 592.306 333.872 589.828 330.554L589.03 331.037L589.093 330.974C588.001 331.667 586.468 331.604 584.767 330.617C582.898 329.42 581.365 327.761 580.357 325.766C578.656 327.614 577.165 329.609 575.842 331.709C573.7 334.943 571.537 338.177 568.849 339.731L566.224 341.264L566.35 341.159C564.229 342.461 561.751 342.713 558.727 340.949C552.259 337.232 548.437 330.029 544.699 323.078C542.893 319.466 540.793 316.001 538.462 312.725L537.16 313.481C537.16 313.481 537.16 313.481 537.223 313.439C536.131 314.111 534.619 314.027 532.918 313.061C530.188 311.297 528.214 308.588 527.353 305.438C524.329 305.165 521.956 306.425 519.625 307.685C516.412 309.428 513.073 311.234 508.201 308.42C503.098 305.48 500.179 301.511 497.638 298.004C495.265 294.791 493.228 292.04 489.553 289.94C487.138 288.575 485.038 288.449 482.77 288.323C480.082 288.176 477.205 288.008 473.635 285.908C470.884 284.228 468.406 282.149 466.285 279.734L466.201 279.776L465.949 279.923C466.054 279.86 466.159 279.797 466.264 279.713C465.151 280.574 463.513 280.574 461.686 279.503C459.943 278.39 458.515 276.857 457.465 275.072C456.436 273.266 455.827 271.271 455.722 269.192C455.722 267.197 456.394 265.874 457.507 265.244Z" fill="white"/>
</g>
</g>
<g id="Group_159" opacity="0.3">
<g id="Group_160">
<path id="Vector_79" d="M461.68 275.346C463.045 276.165 464.116 275.514 464.116 273.96C464.074 273.12 463.822 272.301 463.402 271.566C462.982 270.831 462.394 270.222 461.68 269.76C460.336 268.941 459.265 269.592 459.265 271.146C459.307 271.986 459.559 272.805 459.979 273.54C460.399 274.275 460.987 274.884 461.68 275.346ZM532.899 308.898C534.243 309.717 535.335 309.066 535.335 307.512C535.293 306.672 535.041 305.853 534.621 305.118C534.201 304.383 533.613 303.774 532.899 303.312C531.555 302.493 530.484 303.144 530.484 304.698C530.526 305.538 530.778 306.357 531.198 307.092C531.618 307.827 532.206 308.436 532.899 308.898ZM584.742 326.441C586.086 327.239 587.178 326.588 587.178 325.034C587.115 324.194 586.884 323.375 586.464 322.64C586.044 321.905 585.456 321.296 584.742 320.813C583.398 320.015 582.327 320.687 582.327 322.22C582.369 323.06 582.6 323.879 583.041 324.614C583.461 325.349 584.049 325.979 584.742 326.441ZM656.194 386.567C657.559 387.386 658.63 386.735 658.63 385.181C658.588 384.341 658.336 383.522 657.916 382.787C657.496 382.052 656.908 381.422 656.194 380.981C654.85 380.162 653.779 380.813 653.779 382.367C653.821 383.207 654.052 384.026 654.493 384.761C654.913 385.496 655.501 386.105 656.194 386.567ZM461.707 265.68C463.45 266.814 464.899 268.326 465.928 270.132C466.978 271.917 467.566 273.933 467.671 276.012C467.671 276.243 467.671 276.453 467.671 276.663C469.393 278.637 471.409 280.338 473.635 281.703C476.533 283.383 478.906 283.509 481.321 283.656C483.757 283.782 486.424 283.929 489.574 285.756C494.341 288.507 497.155 292.329 499.633 295.71C502.111 299.091 504.19 301.947 508.201 304.257C511.645 306.252 514.207 304.866 517.168 303.249C519.94 301.758 522.964 300.141 527.185 300.96C527.899 298.461 530.209 297.642 532.96 299.238C535.942 300.939 538.378 304.887 538.84 308.415C542.305 312.384 544.93 317.298 547.345 321.792C550.852 328.344 553.876 333.993 558.727 336.786C563.389 339.474 566.644 334.581 570.109 329.394C572.671 325.551 575.296 321.603 578.803 320.175C578.803 316.395 581.512 314.862 584.809 316.752C586.51 317.865 587.917 319.356 588.946 321.099C589.975 322.842 590.605 324.795 590.752 326.811C594.175 330.948 596.8 336.324 599.341 341.553C602.869 348.819 606.187 355.665 611.311 358.626C617.359 362.112 622.714 360.768 627.46 359.592C631.597 358.563 635.524 357.576 639.451 359.865C644.302 362.679 649.51 370.155 653.101 376.119C654.235 376.014 655.348 376.308 656.272 376.938C658.015 378.051 659.464 379.584 660.493 381.369C661.522 383.175 662.131 385.191 662.236 387.249C662.236 391.05 659.548 392.583 656.251 390.672C654.508 389.538 653.059 388.026 652.03 386.22C650.98 384.435 650.392 382.419 650.266 380.361C650.266 379.521 650.434 378.681 650.791 377.925C647.473 372.423 643.063 366.081 639.472 364.002C636.658 362.385 633.214 363.204 629.56 364.149C624.394 365.43 618.535 366.9 611.353 362.742C604.507 358.815 600.496 350.52 596.59 342.519C594.427 338.025 592.306 333.699 589.786 330.423C588.715 331.641 586.888 331.788 584.83 330.591C582.856 329.352 581.26 327.588 580.252 325.488C577.648 326.685 575.401 330.003 573.259 333.258C569.458 338.97 565.531 344.871 558.769 340.965C552.322 337.248 548.479 330.045 544.762 323.073C542.893 319.356 540.73 315.807 538.294 312.426C537.286 314.043 535.291 314.4 532.981 313.077C530.251 311.292 528.277 308.583 527.416 305.454C524.392 305.181 522.019 306.441 519.688 307.68C516.475 309.444 513.136 311.25 508.264 308.436C503.161 305.475 500.242 301.527 497.701 298.02C495.328 294.786 493.291 292.035 489.616 289.956C487.201 288.57 485.101 288.444 482.833 288.339C480.145 288.192 477.268 288.024 473.698 285.924C470.947 284.223 468.448 282.144 466.327 279.729C465.214 280.59 463.576 280.59 461.749 279.519C460.006 278.385 458.578 276.873 457.528 275.067C456.499 273.282 455.89 271.266 455.785 269.208C455.722 265.302 458.41 263.769 461.707 265.68Z" fill="#428AE2"/>
</g>
</g>
<g id="Group_161">
<g id="Group_162">
<path id="Vector_80" d="M662.181 425.762C662.223 425.762 662.265 425.764 662.307 425.743C662.328 425.722 662.37 425.678 662.391 425.636C662.391 425.615 662.412 425.596 662.412 425.554C662.412 425.533 662.412 425.489 662.412 425.468C662.412 425.426 662.391 425.407 662.37 425.386C662.349 425.365 662.328 425.344 662.307 425.323L455.877 306.148C455.856 306.148 455.835 306.125 455.793 306.125C455.772 306.125 455.73 306.125 455.709 306.125C455.667 306.146 455.646 306.148 455.625 306.169C455.583 306.19 455.562 306.209 455.562 306.251C455.541 306.272 455.52 306.316 455.52 306.337C455.52 306.358 455.52 306.398 455.52 306.419C455.541 306.461 455.562 306.484 455.562 306.505C455.583 306.526 455.604 306.547 455.646 306.568L662.055 425.743C662.097 425.764 662.139 425.762 662.181 425.762Z" fill="#0080FF"/>
</g>
</g>
<g id="Group_163" opacity="0.2">
<g id="Group_164">
<path id="Vector_81" d="M472.269 192.125C478.821 192.125 485.352 193.553 490.35 196.451C495.348 199.328 497.828 203.108 497.849 206.888C497.828 210.668 495.348 214.448 490.35 217.325C485.373 220.202 478.821 221.63 472.269 221.63C465.717 221.63 459.186 220.202 454.188 217.325C449.19 214.448 446.712 210.668 446.712 206.888C446.712 203.108 449.211 199.328 454.188 196.451C459.186 193.553 465.738 192.125 472.269 192.125Z" fill="#428AE2"/>
</g>
</g>
<g id="Group_165">
<g id="Group_166">
<path id="Vector_82" d="M472.272 189.972C480.231 189.972 487.686 191.757 493.251 194.991C498.837 198.225 501.903 202.425 501.903 206.919C501.903 211.413 498.837 215.634 493.293 218.847C487.749 222.06 480.231 223.866 472.314 223.866C464.397 223.866 456.921 222.081 451.314 218.847C445.728 215.613 442.725 211.413 442.725 206.919C442.725 202.425 445.77 198.183 451.314 194.991C456.858 191.778 464.334 189.972 472.272 189.972ZM472.276 224.556C480.34 224.556 487.921 222.75 493.633 219.453C499.345 216.135 502.579 211.662 502.579 206.916C502.579 202.17 499.408 197.718 493.633 194.379C487.858 191.061 480.34 189.276 472.276 189.276C464.212 189.276 456.631 191.082 450.919 194.379C445.207 197.676 441.973 202.17 441.973 206.916C441.973 211.662 445.144 216.114 450.919 219.453C456.694 222.771 464.212 224.556 472.276 224.556Z" fill="#0080FF"/>
</g>
</g>
<g id="Group_167">
<g id="Group_168">
<path id="Vector_83" d="M454.19 181.724C459.188 178.826 465.74 177.398 472.271 177.398C478.802 177.398 485.354 178.826 490.352 181.724C495.35 184.601 497.87 188.381 497.87 192.119V198.419C497.87 202.199 495.371 205.958 490.373 208.856C485.396 211.733 478.844 213.161 472.292 213.161C465.74 213.161 459.209 211.733 454.211 208.856C449.213 205.958 446.735 202.199 446.735 198.419V192.119C446.714 188.381 449.213 184.601 454.19 181.724Z" fill="#C6DDEB"/>
</g>
</g>
<g id="Group_169">
<g id="Group_170">
<path id="Vector_84" d="M472.273 177.397C478.825 177.397 485.356 178.825 490.354 181.723C495.352 184.6 497.851 188.38 497.872 192.118C497.851 195.877 495.371 199.678 490.373 202.555C485.396 205.453 478.844 206.881 472.292 206.881C465.74 206.881 459.209 205.432 454.211 202.555C449.213 199.678 446.735 195.898 446.735 192.118C446.735 188.338 449.234 184.558 454.211 181.681C459.209 178.804 465.742 177.397 472.273 177.397Z" fill="white"/>
</g>
</g>
<g id="Group_171" opacity="0.2">
<g id="Group_172">
<path id="Vector_85" d="M450.672 499.7C457.224 499.7 463.755 501.128 468.753 504.026C473.751 506.903 476.231 510.683 476.252 514.463C476.231 518.243 473.751 522.023 468.753 524.9C463.776 527.777 457.224 529.205 450.672 529.205C444.12 529.205 437.589 527.777 432.591 524.9C427.593 522.023 425.115 518.243 425.115 514.463C425.115 510.683 427.614 506.903 432.591 504.026C437.589 501.128 444.141 499.7 450.672 499.7Z" fill="#428AE2"/>
</g>
</g>
<g id="Group_173">
<g id="Group_174">
<path id="Vector_86" d="M450.678 497.518C458.637 497.518 466.092 499.303 471.657 502.537C477.243 505.771 480.267 509.992 480.267 514.465C480.267 518.959 477.201 523.201 471.657 526.393C466.113 529.606 458.595 531.412 450.678 531.412C442.761 531.412 435.285 529.627 429.678 526.393C424.092 523.18 421.089 518.959 421.089 514.465C421.089 509.992 424.134 505.75 429.678 502.537C435.222 499.324 442.74 497.518 450.678 497.518ZM450.686 532.105C458.75 532.105 466.31 530.299 472.043 527.002C477.755 523.705 480.989 519.211 480.989 514.465C480.989 509.719 477.818 505.267 472.043 501.949C466.268 498.61 458.75 496.825 450.686 496.825C442.601 496.825 435.02 498.631 429.329 501.949C423.617 505.246 420.362 509.719 420.362 514.465C420.362 519.232 423.533 523.663 429.308 527.002C435.083 530.341 442.622 532.105 450.686 532.105Z" fill="#0080FF"/>
</g>
</g>
<g id="Group_175">
<g id="Group_176">
<path id="Vector_87" d="M432.592 489.272C437.59 486.395 444.142 484.946 450.673 484.946C457.204 484.946 463.756 486.395 468.754 489.272C473.752 492.149 476.232 495.929 476.253 499.709C476.232 499.709 476.232 506.009 476.253 506.009C476.232 509.789 473.752 513.548 468.754 516.446C463.777 519.323 457.225 520.751 450.673 520.751C444.121 520.751 437.59 519.323 432.592 516.446C427.594 513.548 425.116 509.789 425.116 506.009V499.688C425.116 495.929 427.636 492.149 432.592 489.272Z" fill="#C6DDEB"/>
</g>
</g>
<g id="Group_177">
<g id="Group_178">
<path id="Vector_88" d="M450.673 484.947C457.225 484.947 463.756 486.396 468.754 489.273C473.752 492.15 476.232 495.93 476.253 499.71C476.232 503.49 473.752 507.27 468.754 510.147C463.777 513.024 457.225 514.473 450.673 514.473C444.121 514.473 437.59 513.024 432.592 510.147C427.594 507.27 425.116 503.49 425.116 499.71C425.116 495.951 427.615 492.15 432.592 489.273C437.59 486.396 444.142 484.947 450.673 484.947Z" fill="white"/>
</g>
</g>
</g>
<g id="dash-svg-verbar">
<g id="Group_179" opacity="0.2">
<g id="Group_180">
<path id="Vector_89" d="M615.56 564.449C613.796 565.457 613.796 567.095 615.56 568.103L643.112 584.124C644.099 584.607 645.17 584.88 646.283 584.88C647.375 584.88 648.446 584.607 649.433 584.124L677.195 568.103C678.917 567.095 678.938 565.457 677.195 564.449L649.622 548.424C648.635 547.92 647.564 547.668 646.472 547.668C645.359 547.668 644.288 547.92 643.322 548.424L615.56 564.449Z" fill="#428AE2"/>
</g>
</g>
<g id="Group_181">
<g id="Group_182">
<path id="Vector_90" d="M646.493 544.086C647.753 544.065 649.013 544.359 650.126 544.947L683.474 564.33C683.852 564.498 684.188 564.771 684.419 565.107C684.671 565.443 684.818 565.842 684.86 566.241C684.818 566.661 684.65 567.06 684.419 567.417C684.167 567.753 683.831 568.026 683.453 568.194L649.874 587.556C648.74 588.123 647.501 588.417 646.241 588.417C644.981 588.417 643.742 588.123 642.608 587.556L609.239 568.194C608.861 568.026 608.525 567.753 608.273 567.417C608 567.081 607.853 566.682 607.811 566.262C607.853 565.842 608.021 565.443 608.273 565.107C608.525 564.771 608.861 564.498 609.239 564.33L642.818 544.947C643.952 544.359 645.212 544.065 646.493 544.086ZM646.222 589.091C647.608 589.133 648.973 588.797 650.191 588.146L683.77 568.763C684.274 568.574 684.715 568.238 685.03 567.797C685.324 567.356 685.492 566.81 685.492 566.285C685.492 565.739 685.324 565.214 685.03 564.752C684.715 564.311 684.274 563.975 683.77 563.786L650.401 544.403C649.204 543.752 647.839 543.437 646.453 543.458C645.046 543.437 643.66 543.752 642.421 544.424L608.842 563.786C608.359 564.017 607.939 564.374 607.624 564.815C607.33 565.256 607.141 565.76 607.099 566.306C607.141 566.831 607.309 567.335 607.624 567.776C607.918 568.196 608.338 568.553 608.8 568.763L642.169 588.146C643.408 588.818 644.794 589.133 646.222 589.091Z" fill="#0080FF"/>
</g>
</g>
<g id="Group_183">
<g id="Group_184">
<g id="Group_185">
<g id="Group_186">
<path id="Vector_91" d="M615.517 495.553L643.088 511.576C644.054 512.08 645.146 512.332 646.238 512.332C647.33 512.332 648.422 512.08 649.388 511.576L677.15 495.572C677.507 495.404 677.824 495.152 678.055 494.816C678.286 494.501 678.412 494.125 678.454 493.726V555.466C678.412 555.865 678.286 556.243 678.055 556.558C677.824 556.894 677.507 557.146 677.15 557.314L649.411 573.316C648.424 573.82 647.351 574.072 646.238 574.072C645.146 574.072 644.075 573.82 643.088 573.316L615.517 557.291C615.16 557.144 614.866 556.892 614.635 556.577C614.404 556.262 614.278 555.886 614.236 555.508V493.747C614.278 494.146 614.404 494.524 614.635 494.839C614.866 495.154 615.16 495.406 615.517 495.553Z" fill="#DB5D34"/>
</g>
</g>
<g id="Group_187">
<g id="Group_188">
<path id="Vector_92" d="M615.56 491.922C613.796 492.909 613.796 494.547 615.56 495.555L643.112 511.578C644.099 512.082 645.17 512.334 646.283 512.334C647.375 512.334 648.446 512.082 649.433 511.578L677.195 495.576C678.917 494.547 678.938 492.909 677.195 491.901L649.601 475.857C648.614 475.353 647.543 475.101 646.43 475.101C645.338 475.101 644.267 475.353 643.28 475.857L615.56 491.922Z" fill="#FF6D3F"/>
</g>
</g>
</g>
</g>
<g id="Group_189" opacity="0.2">
<g id="Group_190">
<path id="Vector_93" d="M665.982 592.152C664.26 593.16 664.239 594.796 665.982 595.804L693.555 611.829C694.542 612.312 695.613 612.562 696.726 612.562C697.818 612.562 698.889 612.312 699.876 611.829L727.617 595.804C729.36 594.796 729.36 593.16 727.617 592.152L700.044 576.129C699.078 575.625 697.986 575.373 696.894 575.373C695.802 575.373 694.731 575.625 693.744 576.129L665.982 592.152Z" fill="#428AE2"/>
</g>
</g>
<g id="Group_191">
<g id="Group_192">
<path id="Vector_94" d="M696.927 571.797C698.187 571.776 699.447 572.07 700.56 572.658L733.908 592.041C734.286 592.209 734.622 592.461 734.874 592.818C735.126 593.154 735.273 593.532 735.315 593.952C735.273 594.372 735.105 594.771 734.853 595.107C734.601 595.464 734.265 595.716 733.887 595.905L700.308 615.267C699.195 615.876 697.935 616.17 696.654 616.149C695.394 616.17 694.134 615.876 693 615.267L659.652 595.905C659.274 595.737 658.938 595.464 658.707 595.128C658.455 594.792 658.308 594.393 658.266 593.973C658.308 593.553 658.476 593.154 658.728 592.818C658.98 592.482 659.316 592.209 659.694 592.041L693.252 572.679C694.386 572.07 695.646 571.776 696.927 571.797ZM696.65 616.812C698.036 616.833 699.422 616.497 700.64 615.846L734.219 596.484C734.702 596.253 735.122 595.896 735.437 595.455C735.731 595.014 735.92 594.51 735.962 593.964C735.92 593.439 735.752 592.935 735.437 592.494C735.143 592.053 734.723 591.717 734.24 591.486L700.892 572.103C699.674 571.452 698.309 571.137 696.923 571.158C695.537 571.137 694.172 571.473 692.933 572.124L659.375 591.486C658.892 591.717 658.451 592.074 658.157 592.515C657.842 592.956 657.653 593.46 657.611 594.006C657.653 594.531 657.821 595.035 658.136 595.476C658.43 595.896 658.85 596.253 659.312 596.484L692.681 615.846C693.899 616.497 695.264 616.833 696.65 616.812Z" fill="#0080FF"/>
</g>
</g>
<g id="Group_193">
<g id="Group_194">
<g id="Group_195">
<g id="Group_196">
<path id="Vector_95" d="M665.939 545.365L693.533 561.43C694.499 561.913 695.591 562.186 696.683 562.186C697.775 562.186 698.867 561.913 699.833 561.43L727.595 545.407C727.952 545.239 728.267 544.987 728.498 544.672C728.729 544.336 728.855 543.958 728.897 543.559V583.207C728.855 583.606 728.729 583.984 728.498 584.299C728.267 584.635 727.952 584.887 727.595 585.034L699.833 601.036C698.867 601.519 697.775 601.771 696.683 601.771C695.591 601.771 694.499 601.519 693.533 601.036L665.939 585.013C665.582 584.845 665.267 584.593 665.057 584.278C664.826 583.963 664.7 583.585 664.658 583.207V543.559C664.7 543.937 664.826 544.315 665.057 544.63C665.288 544.945 665.582 545.197 665.939 545.365Z" fill="url(#paint0_linear)"/>
</g>
</g>
<g id="Group_197">
<g id="Group_198">
<path id="Vector_96" d="M665.982 541.716C664.26 542.724 664.239 544.36 665.982 545.368L693.534 561.412C694.5 561.916 695.592 562.191 696.684 562.191C697.776 562.191 698.868 561.916 699.834 561.412L727.596 545.41C729.318 544.402 729.339 542.745 727.596 541.758L700.023 525.735C699.036 525.231 697.965 524.979 696.873 524.979C695.781 524.979 694.689 525.231 693.723 525.735L665.982 541.716Z" fill="#5DA5FD"/>
</g>
</g>
</g>
</g>
<g id="Group_199" opacity="0.2">
<g id="Group_200">
<path id="Vector_97" d="M713.997 620.51C712.275 621.518 712.254 623.153 713.997 624.161L741.57 640.163C742.557 640.667 743.628 640.919 744.741 640.919C745.833 640.919 746.904 640.667 747.891 640.163L775.632 624.161C777.375 623.153 777.396 621.518 775.632 620.51L748.059 604.487C747.093 603.983 746.001 603.731 744.909 603.731C743.817 603.731 742.746 603.983 741.759 604.487L713.997 620.51Z" fill="#428AE2"/>
</g>
</g>
<g id="Group_201">
<g id="Group_202">
<path id="Vector_98" d="M744.943 600.145C746.203 600.124 747.463 600.418 748.576 601.006L781.924 620.389C782.302 620.557 782.638 620.83 782.89 621.166C783.142 621.502 783.289 621.901 783.331 622.3C783.289 622.72 783.121 623.119 782.869 623.476C782.617 623.812 782.302 624.085 781.903 624.253L748.324 643.636C747.211 644.224 745.951 644.518 744.67 644.497C743.41 644.539 742.15 644.224 741.016 643.636L707.668 624.253C707.29 624.085 706.954 623.812 706.723 623.497C706.471 623.161 706.324 622.762 706.282 622.342C706.324 621.922 706.492 621.523 706.744 621.187C706.996 620.851 707.311 620.578 707.71 620.41L741.268 601.027C742.402 600.439 743.662 600.145 744.943 600.166V600.145ZM744.685 645.148C746.071 645.19 747.436 644.854 748.654 644.203L782.233 624.82C782.737 624.631 783.178 624.295 783.493 623.854C783.808 623.413 783.955 622.888 783.955 622.342C783.955 621.796 783.808 621.271 783.493 620.809C783.178 620.368 782.737 620.032 782.233 619.843L748.885 600.46C747.646 599.851 746.281 599.515 744.916 599.515C743.53 599.515 742.165 599.851 740.926 600.46L707.368 619.843C706.864 620.074 706.444 620.41 706.15 620.851C705.835 621.292 705.646 621.817 705.604 622.363C705.646 622.888 705.814 623.392 706.129 623.833C706.423 624.253 706.843 624.61 707.326 624.82L740.674 644.203C741.892 644.854 743.278 645.19 744.685 645.148Z" fill="#0080FF"/>
</g>
</g>
<g id="Group_203">
<g id="Group_204">
<g id="Group_205">
<g id="Group_206">
<path id="Vector_99" d="M713.973 586.336L741.546 602.359C742.512 602.842 743.604 603.115 744.696 603.115C745.788 603.115 746.88 602.842 747.867 602.359L775.608 586.336C775.965 586.168 776.28 585.916 776.511 585.58C776.742 585.265 776.868 584.887 776.91 584.488V611.515C776.868 611.914 776.742 612.292 776.511 612.628C776.28 612.943 775.965 613.195 775.587 613.363L747.846 629.386C746.88 629.89 745.788 630.142 744.696 630.142C743.604 630.142 742.512 629.89 741.546 629.386L713.973 613.363C713.616 613.195 713.322 612.943 713.091 612.628C712.86 612.313 712.734 611.935 712.692 611.557V584.53C712.734 584.908 712.86 585.286 713.091 585.601C713.322 585.916 713.616 586.168 713.973 586.336Z" fill="url(#paint1_linear)"/>
</g>
</g>
<g id="Group_207">
<g id="Group_208">
<path id="Vector_100" d="M713.997 582.677C712.275 583.685 712.254 585.323 713.997 586.331L741.57 602.354C742.557 602.837 743.628 603.11 744.741 603.11C745.833 603.11 746.904 602.837 747.891 602.354L775.632 586.331C777.375 585.323 777.396 583.685 775.632 582.677L748.059 566.654C747.093 566.15 746.001 565.898 744.909 565.898C743.817 565.898 742.746 566.15 741.759 566.654L713.997 582.677Z" fill="white"/>
</g>
</g>
</g>
</g>
</g>
<g id="dash-svg-horbar">
<g id="Group_209">
<g id="Group_210">
<g id="Group_211">
<g id="Group_212">
<path id="Vector_101" d="M340.889 368.462L340.931 379.632L468.695 453.888L468.651 442.718L340.889 368.462Z" fill="#DB5D34"/>
</g>
</g>
<g id="Group_213">
<g id="Group_214">
<path id="Vector_102" d="M340.888 368.453L468.652 442.709L490.933 429.836L363.169 355.601L340.888 368.453Z" fill="#FF6D3F"/>
</g>
</g>
<g id="Group_215">
<g id="Group_216">
<path id="Vector_103" d="M468.656 442.698L468.698 453.87L490.958 441.018L490.937 429.846L468.656 442.698Z" fill="#DB5D34"/>
</g>
</g>
</g>
</g>
<g id="Group_217">
<g id="Group_218">
<g id="Group_219">
<g id="Group_220">
<path id="Vector_104" d="M314.322 383.797L314.362 394.969L417.81 455.092L417.766 443.92L314.322 383.797Z" fill="#2A72CA"/>
</g>
</g>
<g id="Group_221">
<g id="Group_222">
<path id="Vector_105" d="M314.319 383.804L417.765 443.927L440.046 431.054L336.6 370.931L314.319 383.804Z" fill="#4F97EF"/>
</g>
</g>
<g id="Group_223">
<g id="Group_224">
<path id="Vector_106" d="M417.773 443.922L417.815 455.094L440.075 442.221L440.054 431.049L417.773 443.922Z" fill="#1159B1"/>
</g>
</g>
</g>
</g>
<g id="Group_225">
<g id="Group_226">
<g id="Group_227">
<g id="Group_228">
<path id="Vector_107" d="M287.76 399.129L287.802 410.301L366.027 455.766L365.985 444.594L287.76 399.129Z" fill="#909CCC"/>
</g>
</g>
<g id="Group_229">
<g id="Group_230">
<path id="Vector_108" d="M365.994 444.585L366.036 455.776L388.296 442.905L388.254 431.731L365.994 444.585Z" fill="#7783B3"/>
</g>
</g>
<g id="Group_231">
<g id="Group_232">
<path id="Vector_109" d="M287.758 399.123L365.983 444.588L388.264 431.736L310.039 386.271L287.758 399.123Z" fill="#B5C3F2"/>
</g>
</g>
</g>
</g>
<g id="Group_233">
<g id="Group_234">
<g id="Group_235">
<g id="Group_236">
<path id="Vector_110" d="M261.202 414.468L261.221 425.64L309.733 453.843L309.71 442.65L261.202 414.468Z" fill="#D4EBF8"/>
</g>
</g>
<g id="Group_237">
<g id="Group_238">
<path id="Vector_111" d="M309.709 442.652L309.73 453.845L332.011 440.972L331.969 429.8L309.709 442.652Z" fill="#C6DDEB"/>
</g>
</g>
<g id="Group_239">
<g id="Group_240">
<path id="Vector_112" d="M261.199 414.459L309.709 442.662L331.969 429.789L283.459 401.607L261.199 414.459Z" fill="white"/>
</g>
</g>
</g>
</g>
</g>
<g id="dash-svg-mountains">
<g id="Group_241">
<g id="Group_242">
<g id="Group_243">
<g id="Group_244">
<path id="Vector_113" d="M594.437 71.943C594.542 71.985 594.626 72.006 594.71 72.069C601.829 59.049 606.575 30.09 615.983 25.008C615.899 25.029 615.836 25.071 615.752 25.092L618.188 23.685L621.548 21.732L625.412 19.485C627.428 18.33 629.675 18.267 632.195 19.716C650.864 30.51 648.785 47.457 662.435 55.311C663.128 55.731 663.863 56.067 664.64 56.319C671.654 43.131 673.124 12.282 681.944 7.22097L686.27 4.70097L691.121 1.90797L691.604 1.61397C693.368 0.584967 695.447 0.605972 697.946 2.03397C722.306 16.104 706.808 81.036 747.905 104.745C752.861 107.622 756.851 108.546 760.211 108.189C766.028 101.532 769.682 91.095 776.423 88.365C775.961 88.554 775.541 88.764 775.121 88.995L784.76 83.388C787.889 81.582 791.69 81.456 796.772 84.396C820.124 97.878 821.111 142.629 838.625 152.751C839.423 153.234 840.305 153.57 841.208 153.78C848.558 143.07 853.241 120.999 859.94 117.975C859.814 118.038 859.667 118.08 859.52 118.164L869.159 112.578C869.747 112.2 870.461 111.99 871.175 111.99C871.889 111.99 872.582 112.2 873.191 112.578C888.101 121.188 892.217 243.807 924.998 262.728L915.317 268.335L584.798 77.508L594.437 71.943Z" fill="#FF906B"/>
</g>
</g>
<g id="Group_245">
<g id="Group_246">
<path id="Vector_114" d="M622.534 25.3251C641.224 36.1191 639.126 53.0451 652.776 60.9201C674.364 73.3941 668.589 -3.6549 688.245 7.64309C712.605 21.7131 697.105 86.6451 738.202 110.354C767.665 127.364 763.74 76.5231 787.071 90.0051C810.402 103.466 811.408 148.238 828.922 158.36C846.436 168.461 851.245 111.131 863.509 118.208C878.419 126.818 882.535 249.437 915.316 268.358L584.797 77.5311C600.946 86.8551 603.865 14.5311 622.534 25.3251Z" fill="#FF6D3F"/>
</g>
</g>
</g>
</g>
<g id="Group_247">
<g id="Group_248">
<g id="Group_249">
<g id="Group_250">
<path id="Vector_115" d="M568.147 87.2534C579.109 93.5744 587.509 93.4484 594.586 90.6554C599.563 86.9804 604.078 82.8014 608.824 80.1554L608.509 80.3234L618.19 74.6954C623.776 71.4614 629.635 70.2434 636.901 74.4434C661.471 88.6394 673.609 139.711 689.695 148.993C692.761 150.904 696.436 151.576 699.964 150.862C711.682 139.9 720.859 117.094 730.351 113.041C729.952 113.188 729.574 113.377 729.217 113.587L738.898 107.98C741.313 106.573 743.812 106.321 746.332 107.77C761.851 116.737 758.743 134.419 775.144 143.911C775.648 144.205 776.194 144.457 776.761 144.646C781.192 137.716 784.783 126.985 790.558 124.675C790.222 124.801 789.907 124.969 789.592 125.137L799.231 119.53C801.331 118.312 803.704 118.207 806.497 119.845C837.535 137.758 845.662 247.399 898.687 278.059L889.048 283.666L558.529 92.8394L568.147 87.2534Z" fill="#4F97EF"/>
</g>
</g>
<g id="Group_251">
<g id="Group_252">
<path id="Vector_116" d="M627.232 80.0378C651.802 94.2338 663.94 145.306 680.026 154.609C705.856 169.519 719.842 103.705 736.663 113.428C752.182 122.374 749.055 140.077 765.456 149.569C779.526 157.696 781.794 116.788 796.851 125.482C827.889 143.395 836.014 253.036 889.039 283.717L558.52 92.8898C594.094 113.386 602.662 65.8628 627.232 80.0378Z" fill="#2A72CA"/>
</g>
</g>
</g>
</g>
<g id="Group_253">
<g id="Group_254">
<g id="Group_255">
<g id="Group_256">
<path id="Vector_117" d="M535.848 105.65C537.633 106.763 539.626 107.456 541.684 107.708C547.018 100.127 550.273 87.275 557.392 83.768C557.182 83.852 556.993 83.957 556.804 84.062L566.443 78.455C569.425 76.712 573.079 76.649 577.909 79.442C594.478 89.018 594.478 108.422 619.09 122.639C624.928 125.999 629.863 126.797 634.147 125.852C645.865 114.344 652.375 89.711 664.492 84.86C663.883 85.07 663.295 85.343 662.728 85.658L672.367 80.051C676.294 77.762 680.811 77.573 686.334 80.765C712.92 96.095 721.11 193.493 745.491 207.542C773.526 223.754 775.225 205.694 802.609 221.507C830.014 237.341 855.802 290.303 866.386 296.414L856.747 302.021L526.165 111.299L535.848 105.65Z" fill="#B5C3F2"/>
</g>
</g>
<g id="Group_257">
<g id="Group_258">
<path id="Vector_118" d="M676.671 86.4673C647.04 69.3523 646.41 149.614 609.429 128.257C584.817 114.04 584.817 94.6363 568.248 85.0813C544.98 71.6203 548.76 124.33 526.164 111.31L856.704 302.095C846.141 295.984 820.395 243.022 792.927 227.188C765.48 211.354 763.884 229.435 735.807 213.244C711.447 199.174 703.257 101.797 676.671 86.4673Z" fill="#909CCC"/>
</g>
</g>
</g>
</g>
<g id="Group_259">
<g id="Group_260">
<g id="Group_261">
<g id="Group_262">
<path id="Vector_119" d="M506.679 122.608C559.704 153.226 568.232 120.907 599.291 138.82C614.348 147.514 616.448 163.705 630.497 171.832C646.898 181.303 643.874 172.63 659.372 181.555C676.193 191.257 689.906 225.382 715.736 240.313C731.822 249.595 744.107 241.069 768.698 255.244C793.268 269.419 801.624 292.897 837.198 313.435L827.517 319.042L496.998 128.194L506.679 122.608Z" fill="white"/>
</g>
</g>
<g id="Group_263" opacity="0.3">
<g id="Group_264">
<path id="Vector_120" d="M589.651 144.413C604.708 153.107 606.806 169.277 620.876 177.404C637.277 186.875 634.232 178.223 649.751 187.148C666.551 196.829 680.264 230.975 706.094 245.885C722.18 255.167 734.488 246.641 759.058 260.816C783.628 275.012 791.984 298.469 827.558 319.007L497.039 128.18C550.085 158.798 558.613 126.479 589.651 144.413Z" fill="#428AE2"/>
</g>
</g>
</g>
</g>
</g>
<g id="dash-svg-pie">
<g id="Group_265">
<g id="Group_266">
<g id="Group_267">
<g id="Group_268">
<path id="Vector_121" d="M1008.37 323.36L1008.48 361.897L1020.2 405.596L1020.09 367.063L1008.37 323.36Z" fill="#DB5D34"/>
</g>
</g>
<g id="Group_269">
<g id="Group_270">
<path id="Vector_122" d="M1110.22 384.041L1110.32 422.597L1164.55 391.286L1164.44 352.751L1110.22 384.041Z" fill="#DB5D34"/>
</g>
</g>
<g id="Group_271">
<g id="Group_272">
<path id="Vector_123" d="M1020.09 367.046L1020.19 405.602C1052.11 403.082 1085.48 408.752 1110.32 422.549L1110.22 384.014C1085.38 370.217 1051.99 364.547 1020.09 367.046Z" fill="#DB5D34"/>
</g>
</g>
<g id="Group_273">
<g id="Group_274">
<path id="Vector_124" d="M1008.37 323.361L1020.09 367.062C1051.99 364.542 1085.38 370.233 1110.22 384.009L1164.44 352.719C1121.65 328.422 1067.78 318.321 1008.37 323.361Z" fill="#FF6D3F"/>
</g>
</g>
</g>
</g>
<g id="Group_275">
<g id="Group_276">
<g id="Group_277">
<g id="Group_278">
<path id="Vector_125" d="M905.389 352.751L905.494 391.286L959.359 422.597L959.233 384.041L905.389 352.751Z" fill="#0089B1"/>
</g>
</g>
<g id="Group_279">
<g id="Group_280">
<path id="Vector_126" d="M905.388 352.751L959.211 384.041C975.36 375.179 994.911 369.635 1015.39 367.493L1003.69 323.771C964.925 327.572 933.549 336.833 905.388 352.751Z" fill="#1DD6FD"/>
</g>
</g>
<g id="Group_281">
<g id="Group_282">
<path id="Vector_127" d="M959.218 384.056L959.323 422.591C975.472 413.708 995.044 408.164 1015.5 406.022L1015.37 367.487C994.939 369.629 975.367 375.131 959.218 384.056Z" fill="#00AFD8"/>
</g>
</g>
</g>
</g>
<g id="Group_283">
<g id="Group_284">
<g id="Group_285">
<g id="Group_286">
<path id="Vector_128" d="M1143.75 467.972C1143.71 455.12 1143.69 442.289 1143.65 429.437C1143.6 413.771 1133.57 398.128 1113.55 385.99L1113.66 424.523C1133.67 436.661 1143.71 452.348 1143.75 467.972Z" fill="#8290BF"/>
</g>
</g>
<g id="Group_287">
<g id="Group_288">
<path id="Vector_129" d="M1220.24 467.831C1220.22 454.979 1220.18 442.148 1220.14 429.296C1220.22 457.289 1201.34 484.904 1165.3 505.715C1151.07 513.779 1135.95 520.205 1120.26 524.846L1120.36 563.381C1136.05 558.74 1151.17 552.335 1165.41 544.25C1201.45 523.439 1220.32 495.824 1220.24 467.831Z" fill="#8290BF"/>
</g>
</g>
<g id="Group_289">
<g id="Group_290">
<path id="Vector_130" d="M1085.82 485.43L1085.93 523.962L1120.37 563.382L1120.27 524.844L1085.82 485.43Z" fill="#6977A5"/>
</g>
</g>
<g id="Group_291">
<g id="Group_292">
<path id="Vector_131" d="M1113.56 385.979C1154.39 410.759 1153.65 450.071 1111.42 474.431C1103.32 479.03 1094.75 482.726 1085.82 485.435L1120.26 524.852C1135.95 520.211 1151.07 513.806 1165.31 505.721C1222.49 472.709 1236.46 422.582 1200.06 380.918C1191.12 370.691 1181.39 362.795 1167.77 354.689L1113.56 385.979Z" fill="#A8B5E4"/>
</g>
</g>
</g>
</g>
<g id="Group_293">
<g id="Group_294">
<g id="Group_295">
<g id="Group_296">
<path id="Vector_132" d="M925.313 430.048C925.355 442.9 925.376 455.752 925.418 468.583C925.418 452.728 935.582 436.831 955.994 424.546L955.868 385.99C935.456 398.296 925.271 414.172 925.313 430.048Z" fill="#1C64BC"/>
</g>
</g>
<g id="Group_297">
<g id="Group_298">
<path id="Vector_133" d="M848.999 430.234C849.041 443.065 849.062 455.917 849.104 468.769C849.188 496.111 867.122 523.432 902.948 544.243C960.11 577.465 1043.56 585.424 1116.14 564.613L1116.04 526.078C1043.44 546.847 960.005 538.93 902.843 505.708C867.017 484.897 849.083 457.576 848.999 430.234Z" fill="#1C64BC"/>
</g>
</g>
<g id="Group_299">
<g id="Group_300">
<path id="Vector_134" d="M902.024 354.657C831.086 396.636 831.296 464.088 902.822 505.668C959.984 538.89 1043.44 546.849 1116.04 526.059L1081.57 486.642C1040.88 498.003 990.623 493.908 957.023 474.399C915.044 450.018 914.771 410.706 955.868 385.947L902.024 354.657Z" fill="#428AE2"/>
</g>
</g>
</g>
</g>
</g>
</g>
<defs>
<filter id="filter0_d" x="0" y="0" width="1570.4" height="1120.02" filterUnits="userSpaceOnUse" color-interpolation-filters="sRGB">
<feFlood flood-opacity="0" result="BackgroundImageFix"/>
<feColorMatrix in="SourceAlpha" type="matrix" values="0 0 0 0 0 0 0 0 0 0 0 0 0 0 0 0 0 0 127 0" result="hardAlpha"/>
<feOffset dy="4"/>
<feGaussianBlur stdDeviation="2"/>
<feComposite in2="hardAlpha" operator="out"/>
<feColorMatrix type="matrix" values="0 0 0 0 0 0 0 0 0 0 0 0 0 0 0 0 0 0 0.25 0"/>
<feBlend mode="normal" in2="BackgroundImageFix" result="effect1_dropShadow"/>
<feBlend mode="normal" in="SourceGraphic" in2="effect1_dropShadow" result="shape"/>
</filter>
<filter id="filter1_f" x="1.9" y="207.849" width="1566.6" height="906.276" filterUnits="userSpaceOnUse" color-interpolation-filters="sRGB">
<feFlood flood-opacity="0" result="BackgroundImageFix"/>
<feBlend mode="normal" in="SourceGraphic" in2="BackgroundImageFix" result="shape"/>
<feGaussianBlur stdDeviation="1.05" result="effect1_foregroundBlur"/>
</filter>
<linearGradient id="paint0_linear" x1="699.976" y1="572.652" x2="693.519" y2="572.652" gradientUnits="userSpaceOnUse">
<stop stop-color="#044CA4"/>
<stop offset="0.5" stop-color="#1158B0"/>
<stop offset="1" stop-color="#1D65BD"/>
</linearGradient>
<linearGradient id="paint1_linear" x1="747.993" y1="607.31" x2="741.535" y2="607.31" gradientUnits="userSpaceOnUse">
<stop stop-color="#C7DEEB"/>
<stop offset="0.5" stop-color="#CEE4F1"/>
<stop offset="1" stop-color="#D4EBF8"/>
</linearGradient>
</defs>
</svg>
