<svg width="1611" height="1287" viewBox="0 0 1611 1287" fill="none" xmlns="http://www.w3.org/2000/svg">
<g id="dashboard 1" clip-path="url(#clip0)">
<g id="Group" filter="url(#filter0_d)">
<g id="Group_2">
<g id="Group_3" opacity="0.1" filter="url(#filter1_f)">
<g id="Group_4">
<path id="Vector" d="M649.852 346.949L1611.4 902.126L1010.55 1249.02L49 693.869L649.852 346.949Z" fill="#428AE2"/>
</g>
</g>
<g id="Group_5">
<g id="Group_6">
<path id="Vector_2" d="M649.852 248.152L1611.4 803.329V831.385L1010.55 1178.31L49 623.128V595.072L649.852 248.152Z" fill="white"/>
</g>
</g>
<g id="Group_7" opacity="0.4">
<g id="Group_8">
<path id="Vector_3" d="M1010.56 1101.4L91.2863 570.649L649.844 248.152L1569.12 778.906L1010.56 1101.4Z" fill="#428AE2"/>
</g>
</g>
<g id="Group_9" opacity="0.2">
<g id="Group_10">
<path id="Vector_4" d="M49.0007 623.143L1010.55 1178.3V1150.24L49.0007 595.066V623.143Z" fill="#428AE2"/>
</g>
</g>
<g id="Group_11" opacity="0.3">
<g id="Group_12">
<path id="Vector_5" d="M1611.4 831.384L1010.55 1178.3V1150.23L1611.4 803.328V831.384Z" fill="#428AE2"/>
</g>
</g>
<g id="Group_13">
<g id="Group_14">
<path id="Vector_6" d="M649.852 137L1611.4 692.177V720.233L1010.55 1067.13L49 511.976V483.92L649.852 137Z" fill="white"/>
</g>
</g>
<g id="Group_15" opacity="0.2">
<g id="Group_16">
<path id="Vector_7" d="M49.0007 511.969L1010.55 1067.14V1039.09L49.0007 483.913V511.969Z" fill="#428AE2"/>
</g>
</g>
<g id="Group_17">
<g id="Group_18">
<path id="Vector_8" d="M852.921 958.061L1010.55 1049.07L1611.4 702.155L1453.77 611.162L852.921 958.061Z" fill="#0854CF"/>
</g>
</g>
<g id="Group_19" opacity="0.5">
<g id="Group_20">
<path id="Vector_9" d="M1419.72 699.283L1482.78 735.695L1545.82 699.283L1482.78 662.869L1419.72 699.283Z" fill="#428AE2"/>
</g>
</g>
<g id="Group_21" opacity="0.5">
<g id="Group_22">
<path id="Vector_10" d="M1356.82 698.681L1451.84 753.556L1460.24 748.705L1365.24 693.832L1356.82 698.681Z" fill="#428AE2"/>
</g>
</g>
<g id="Group_23" opacity="0.5">
<g id="Group_24">
<path id="Vector_11" d="M1362.95 724.535L1432.51 764.71L1440.92 759.859L1371.35 719.686L1362.95 724.535Z" fill="#428AE2"/>
</g>
</g>
<g id="Group_25" opacity="0.5">
<g id="Group_26">
<path id="Vector_12" d="M1308.81 715.599L1413.18 775.869L1421.6 771.018L1317.23 710.748L1308.81 715.599Z" fill="#428AE2"/>
</g>
</g>
<g id="Group_27" opacity="0.5">
<g id="Group_28">
<path id="Vector_13" d="M1310.5 738.898L1393.84 787.03L1402.27 782.179L1318.91 734.047L1310.5 738.898Z" fill="#428AE2"/>
</g>
</g>
<g id="Group_29">
<g id="Group_30">
<path id="Vector_14" d="M1611.4 720.244L1010.55 1067.14V1039.09L1611.4 692.167V720.244Z" fill="#084BB5"/>
</g>
</g>
<g id="Group_31">
<g id="Group_32">
<path id="Vector_15" d="M852.921 948.065L1010.55 1039.08V1067.14L852.921 976.142V948.065Z" fill="#084BB5"/>
</g>
</g>
<g id="Group_33">
<g id="Group_34">
<path id="Vector_16" d="M1419.72 685.817V693.881L1482.78 731.177L1545.82 693.881V685.817L1482.78 649.403L1419.72 685.817Z" fill="white"/>
</g>
</g>
<g id="Group_35" opacity="0.3">
<g id="Group_36">
<path id="Vector_17" d="M1482.78 976.308V985.275L1545.82 948V939.915L1482.78 976.308Z" fill="#428AE2"/>
</g>
</g>
<g id="Group_37" opacity="0.2">
<g id="Group_38">
<path id="Vector_18" d="M1419.72 685.815L1482.78 722.208V731.175L1419.72 693.9V685.815Z" fill="#428AE2"/>
</g>
</g>
<g id="Group_39">
<g id="Group_40">
<path id="Vector_19" d="M1318.91 720.577L1402.27 768.709V776.794L1393.84 781.645L1310.5 733.513V725.426L1318.91 720.577Z" fill="white"/>
</g>
</g>
<g id="Group_41">
<g id="Group_42">
<path id="Vector_20" d="M1317.23 697.283L1421.6 757.532V765.617L1413.18 770.489L1308.81 710.219V702.134L1317.23 697.283Z" fill="white"/>
</g>
</g>
<g id="Group_43">
<g id="Group_44">
<path id="Vector_21" d="M1371.35 706.222L1440.92 746.393V754.459L1432.51 759.31L1362.95 719.156V711.073L1371.35 706.222Z" fill="white"/>
</g>
</g>
<g id="Group_45">
<g id="Group_46">
<path id="Vector_22" d="M1365.24 680.366L1460.24 735.218V743.303L1451.84 748.154L1356.82 693.3V685.217L1365.24 680.366Z" fill="white"/>
</g>
</g>
<g id="Group_47" opacity="0.3">
<g id="Group_48">
<path id="Vector_23" d="M1451.84 994.168V1002.25L1460.24 997.402V989.317L1451.84 994.168Z" fill="#428AE2"/>
</g>
</g>
<g id="Group_49" opacity="0.3">
<g id="Group_50">
<path id="Vector_24" d="M1432.51 751.233V759.32L1440.93 754.467V746.384L1432.51 751.233Z" fill="#428AE2"/>
</g>
</g>
<g id="Group_51" opacity="0.3">
<g id="Group_52">
<path id="Vector_25" d="M1413.18 762.391V770.476L1421.58 765.625V757.54L1413.18 762.391Z" fill="#428AE2"/>
</g>
</g>
<g id="Group_53" opacity="0.3">
<g id="Group_54">
<path id="Vector_26" d="M1393.85 773.557V781.642L1402.25 776.791V768.706L1393.85 773.557Z" fill="#428AE2"/>
</g>
</g>
<g id="Group_55" opacity="0.2">
<g id="Group_56">
<path id="Vector_27" d="M1356.82 685.218L1451.84 740.088V748.155L1356.82 693.3V685.218Z" fill="#428AE2"/>
</g>
</g>
<g id="Group_57" opacity="0.2">
<g id="Group_58">
<path id="Vector_28" d="M1362.95 711.073L1432.5 751.244V759.31L1362.95 719.156V711.073Z" fill="#428AE2"/>
</g>
</g>
<g id="Group_59" opacity="0.2">
<g id="Group_60">
<path id="Vector_29" d="M1308.81 702.134L1413.18 762.406V770.47L1308.81 710.219V702.134Z" fill="#428AE2"/>
</g>
</g>
<g id="Group_61" opacity="0.2">
<g id="Group_62">
<path id="Vector_30" d="M1310.49 725.437L1393.84 773.55V781.633L1310.49 733.524V725.437Z" fill="#428AE2"/>
</g>
</g>
<g id="Group_63" opacity="0.4">
<g id="Group_64">
<path id="Vector_31" d="M1031.45 396.663L865.972 492.213L488.646 274.359L654.145 178.809L1031.45 396.663ZM865.976 493.154L866.163 493.028L1033.09 396.659L1032.48 396.323L654.149 177.881L653.958 177.986L487.031 274.376L487.638 274.712L865.976 493.154Z" fill="#428AE2"/>
</g>
</g>
<g id="Group_65" opacity="0.4">
<g id="Group_66">
<path id="Vector_32" d="M1393.04 605.427L858.673 913.938L526.789 722.313L1061.13 413.802L1393.04 605.427ZM858.671 914.879L858.881 914.753L1394.65 605.423L1394.05 605.066L1061.13 412.874L1060.92 412.979L525.149 722.33L525.758 722.666L858.671 914.879Z" fill="#428AE2"/>
</g>
</g>
<g id="Group_67" opacity="0.4">
<g id="Group_68">
<path id="Vector_33" d="M836.974 508.988L497.11 705.191L258.214 567.263L598.078 371.102L836.974 508.988ZM497.112 706.13L497.322 706.004L838.551 508.982L837.963 508.625L598.038 370.109L597.849 370.235L256.599 567.278L257.208 567.614L497.112 706.13Z" fill="#428AE2"/>
</g>
</g>
<g id="Group_69" opacity="0.2">
<g id="Group_70">
<path id="Vector_34" d="M401.304 336.55L496.329 391.423L504.729 386.551L409.725 331.699L401.304 336.55Z" fill="#428AE2"/>
</g>
</g>
<g id="Group_71" opacity="0.2">
<g id="Group_72">
<path id="Vector_35" d="M380.436 348.603L475.461 403.476L483.861 398.604L388.857 343.752L380.436 348.603Z" fill="#428AE2"/>
</g>
</g>
<g id="Group_73" opacity="0.2">
<g id="Group_74">
<path id="Vector_36" d="M359.568 360.647L454.593 415.522L462.993 410.671L367.989 355.798L359.568 360.647Z" fill="#428AE2"/>
</g>
</g>
<g id="Group_75" opacity="0.2">
<g id="Group_76">
<path id="Vector_37" d="M338.692 372.7L433.717 427.575L442.117 422.701L347.113 367.851L338.692 372.7Z" fill="#428AE2"/>
</g>
</g>
<g id="Group_77" opacity="0.2">
<g id="Group_78">
<path id="Vector_38" d="M317.825 384.745L412.85 439.597L421.25 434.746L326.246 379.896L317.825 384.745Z" fill="#428AE2"/>
</g>
</g>
<g id="Group_79" opacity="0.2">
<g id="Group_80">
<path id="Vector_39" d="M296.955 396.796L391.98 451.669L400.38 446.797L305.376 391.945L296.955 396.796Z" fill="#428AE2"/>
</g>
</g>
<g id="Group_81" opacity="0.2">
<g id="Group_82">
<path id="Vector_40" d="M276.087 408.84L371.112 463.715L379.512 458.864L284.508 403.991L276.087 408.84Z" fill="#428AE2"/>
</g>
</g>
<g id="Group_83" opacity="0.2">
<g id="Group_84">
<path id="Vector_41" d="M255.211 420.897L350.236 475.772L358.657 470.921L263.632 416.048L255.211 420.897Z" fill="#428AE2"/>
</g>
</g>
<g id="Group_85" opacity="0.2">
<g id="Group_86">
<path id="Vector_42" d="M234.343 432.949L329.368 487.824L337.768 482.95L242.764 428.1L234.343 432.949Z" fill="#428AE2"/>
</g>
</g>
<g id="Group_87" opacity="0.2">
<g id="Group_88">
<path id="Vector_43" d="M213.476 444.994L308.501 499.846L316.901 495.018L221.897 440.145L213.476 444.994Z" fill="#428AE2"/>
</g>
</g>
<g id="Group_89" opacity="0.2">
<g id="Group_90">
<path id="Vector_44" d="M192.606 457.045L287.631 511.918L296.031 507.046L201.027 452.194L192.606 457.045Z" fill="#428AE2"/>
</g>
</g>
<g id="Group_91" opacity="0.2">
<g id="Group_92">
<path id="Vector_45" d="M171.739 469.097L266.764 523.973L275.164 519.098L180.16 464.249L171.739 469.097Z" fill="#428AE2"/>
</g>
</g>
<g id="Group_93" opacity="0.2">
<g id="Group_94">
<path id="Vector_46" d="M150.87 481.142L245.895 536.015L254.295 531.164L159.291 476.291L150.87 481.142Z" fill="#428AE2"/>
</g>
</g>
<g id="Group_95" opacity="0.2">
<g id="Group_96">
<path id="Vector_47" d="M181.749 523.075L225.009 548.065L233.43 543.193L190.17 518.224L181.749 523.075Z" fill="#428AE2"/>
</g>
</g>
<g id="Group_97" opacity="0.2">
<g id="Group_98">
<path id="Vector_48" d="M614.877 716.861L875.256 867.2L881.556 863.567L621.177 713.228L614.877 716.861Z" fill="#428AE2"/>
</g>
</g>
<g id="Group_99" opacity="0.2">
<g id="Group_100">
<path id="Vector_49" d="M599.272 725.868L859.651 876.207L865.951 872.574L605.551 722.235L599.272 725.868Z" fill="#428AE2"/>
</g>
</g>
<g id="Group_101" opacity="0.2">
<g id="Group_102">
<path id="Vector_50" d="M699.262 801.626L844.057 885.225L850.336 881.594L705.562 797.993L699.262 801.626Z" fill="#428AE2"/>
</g>
</g>
<g id="Group_103" opacity="0.2">
<g id="Group_104">
<path id="Vector_51" d="M475.008 472.488L668.964 583.788L675.245 580.155L481.308 468.855L475.008 472.488Z" fill="#428AE2"/>
</g>
</g>
<g id="Group_105" opacity="0.2">
<g id="Group_106">
<path id="Vector_52" d="M459.406 481.497L653.362 592.797L659.643 589.164L465.685 477.864L459.406 481.497Z" fill="#428AE2"/>
</g>
</g>
<g id="Group_107" opacity="0.2">
<g id="Group_108">
<path id="Vector_53" d="M492.965 518.216L637.76 601.817L644.039 598.184L499.242 514.583L492.965 518.216Z" fill="#428AE2"/>
</g>
</g>
<g id="Group_109" opacity="0.4">
<g id="Group_110">
<path id="Vector_54" d="M780.958 636.859L1018.95 774.26L1036.3 764.245L798.304 626.84L780.958 636.859Z" fill="#428AE2"/>
</g>
</g>
<g id="Group_111" opacity="0.4">
<g id="Group_112">
<path id="Vector_55" d="M734.145 644.914L988.56 791.809L996.981 786.958L742.566 640.063L734.145 644.914Z" fill="#428AE2"/>
</g>
</g>
<g id="Group_113" opacity="0.4">
<g id="Group_114">
<path id="Vector_56" d="M774.066 692.06L967.686 803.864L976.107 798.992L782.466 687.209L774.066 692.06Z" fill="#428AE2"/>
</g>
</g>
<g id="Group_115">
<g id="Group_116">
<path id="Vector_57" d="M769.444 520.659C769.465 520.659 769.465 520.659 769.486 520.659C769.507 520.638 769.507 520.638 769.528 520.638C769.528 520.617 769.549 520.596 769.549 520.596C769.549 520.575 769.57 520.554 769.57 520.554V479.478C769.57 479.478 769.549 479.457 769.549 479.436L769.528 479.415C769.507 479.394 769.507 479.394 769.486 479.373C769.465 479.373 769.465 479.373 769.444 479.373C769.402 479.373 769.381 479.394 769.36 479.415C769.339 479.436 769.318 479.457 769.318 479.478V520.554C769.318 520.575 769.339 520.596 769.36 520.617C769.381 520.638 769.402 520.659 769.444 520.659Z" fill="#0080FF"/>
</g>
</g>
<g id="Group_117">
<g id="Group_118">
<path id="Vector_58" d="M720.673 492.494C720.694 492.494 720.736 492.494 720.757 492.473C720.778 492.452 720.799 492.412 720.799 492.391V433.799C720.799 433.757 720.778 433.738 720.757 433.717C720.736 433.696 720.715 433.673 720.673 433.673C720.631 433.673 720.61 433.696 720.589 433.717C720.568 433.738 720.547 433.757 720.547 433.799V492.391C720.547 492.412 720.568 492.452 720.589 492.473C720.61 492.494 720.652 492.494 720.673 492.494Z" fill="#0080FF"/>
</g>
</g>
<g id="Group_119">
<g id="Group_120">
<path id="Vector_59" d="M671.906 464.336C671.927 464.336 671.969 464.336 671.99 464.315C672.011 464.294 672.032 464.252 672.032 464.231V391.508C672.032 391.466 672.011 391.445 671.99 391.424C671.969 391.403 671.927 391.382 671.906 391.382C671.885 391.382 671.843 391.403 671.822 391.424C671.801 391.445 671.78 391.466 671.78 391.508V464.231C671.78 464.252 671.801 464.294 671.822 464.315C671.843 464.336 671.885 464.336 671.906 464.336Z" fill="#0080FF"/>
</g>
</g>
<g id="Group_121">
<g id="Group_122">
<path id="Vector_60" d="M623.133 436.194C623.154 436.194 623.196 436.173 623.217 436.152C623.238 436.131 623.259 436.11 623.259 436.068V374.202C623.259 374.202 623.238 374.181 623.238 374.16L623.217 374.139C623.196 374.118 623.196 374.118 623.175 374.097C623.154 374.097 623.133 374.097 623.133 374.097C623.091 374.097 623.07 374.118 623.049 374.139C623.028 374.16 623.007 374.181 623.007 374.202V436.068C623.007 436.11 623.028 436.131 623.049 436.152C623.07 436.173 623.091 436.194 623.133 436.194Z" fill="#0080FF"/>
</g>
</g>
<g id="Group_123">
<g id="Group_124">
<path id="Vector_61" d="M574.345 408.043C574.387 408.043 574.408 408.022 574.429 408.001C574.45 407.98 574.471 407.938 574.471 407.917V367.555C574.471 367.513 574.45 367.492 574.429 367.471C574.408 367.45 574.387 367.429 574.345 367.429C574.303 367.429 574.282 367.45 574.261 367.471C574.24 367.492 574.219 367.513 574.219 367.555V407.917C574.219 407.938 574.24 407.98 574.261 408.001C574.282 408.022 574.303 408.043 574.345 408.043Z" fill="#0080FF"/>
</g>
</g>
<g id="Group_125">
<g id="Group_126">
<path id="Vector_62" d="M774.641 523.789C774.683 523.789 774.725 523.768 774.767 523.747C774.809 523.726 774.828 523.705 774.849 523.663C774.87 523.642 774.891 523.6 774.891 523.579C774.891 523.537 774.891 523.516 774.891 523.474C774.87 523.453 774.849 523.432 774.828 523.411C774.828 523.369 774.788 523.348 774.767 523.348L568.358 404.194C568.316 404.173 568.253 404.173 568.19 404.173C568.127 404.194 568.064 404.236 568.022 404.299C568.022 404.32 567.999 404.341 567.999 404.383C567.999 404.404 567.999 404.446 567.999 404.467C568.02 404.509 568.02 404.53 568.041 404.551C568.062 404.572 568.085 404.593 568.127 404.614L774.555 523.747C774.576 523.768 774.62 523.789 774.641 523.789Z" fill="#0080FF"/>
</g>
</g>
<g id="Group_127">
<g id="Group_128">
<path id="Vector_63" d="M735.554 540.154C735.575 540.154 735.617 540.156 735.638 540.114C735.659 540.093 735.68 540.07 735.68 540.028V491.602C735.68 491.56 735.659 491.541 735.638 491.52C735.617 491.499 735.575 491.478 735.554 491.478C735.512 491.478 735.491 491.499 735.47 491.52C735.449 491.541 735.428 491.56 735.428 491.602V540.028C735.428 540.07 735.449 540.093 735.47 540.114C735.491 540.135 735.512 540.154 735.554 540.154Z" fill="#0080FF"/>
</g>
</g>
<g id="Group_129">
<g id="Group_130">
<path id="Vector_64" d="M686.784 512.003C686.805 512.003 686.847 511.982 686.868 511.961C686.889 511.94 686.91 511.896 686.91 511.875V448.686C686.91 448.644 686.889 448.625 686.868 448.604C686.847 448.583 686.805 448.56 686.784 448.56C686.763 448.56 686.721 448.583 686.7 448.604C686.679 448.625 686.658 448.644 686.658 448.686V511.875C686.658 511.896 686.679 511.94 686.7 511.961C686.721 511.982 686.763 512.003 686.784 512.003Z" fill="#0080FF"/>
</g>
</g>
<g id="Group_131">
<g id="Group_132">
<path id="Vector_65" d="M638.011 483.839C638.053 483.839 638.074 483.818 638.095 483.797C638.116 483.776 638.137 483.755 638.137 483.713V448.688C638.137 448.646 638.116 448.622 638.095 448.601C638.074 448.58 638.053 448.559 638.011 448.559C637.99 448.559 637.948 448.58 637.927 448.601C637.906 448.622 637.885 448.646 637.885 448.688V483.713C637.885 483.755 637.906 483.776 637.927 483.797C637.948 483.818 637.99 483.839 638.011 483.839Z" fill="#0080FF"/>
</g>
</g>
<g id="Group_133">
<g id="Group_134">
<path id="Vector_66" d="M589.24 455.687C589.282 455.687 589.303 455.664 589.324 455.643C589.345 455.622 589.366 455.582 589.366 455.561V406.505C589.366 406.463 589.345 406.44 589.324 406.419C589.303 406.398 589.282 406.379 589.24 406.379C589.198 406.379 589.177 406.398 589.156 406.419C589.135 406.44 589.114 406.463 589.114 406.505V455.561C589.114 455.582 589.135 455.622 589.156 455.643C589.177 455.664 589.198 455.687 589.24 455.687Z" fill="#0080FF"/>
</g>
</g>
<g id="Group_135">
<g id="Group_136">
<path id="Vector_67" d="M540.439 427.522C540.481 427.522 540.502 427.524 540.523 427.503C540.544 427.461 540.565 427.438 540.565 427.417V393.714C540.565 393.672 540.544 393.649 540.523 393.628C540.502 393.607 540.481 393.586 540.439 393.586C540.418 393.586 540.376 393.607 540.355 393.628C540.334 393.649 540.313 393.672 540.313 393.714V427.377C540.313 427.398 540.313 427.419 540.313 427.44C540.334 427.44 540.334 427.459 540.355 427.48C540.355 427.501 540.376 427.501 540.397 427.522C540.397 427.522 540.418 427.522 540.439 427.522Z" fill="#0080FF"/>
</g>
</g>
<g id="Group_137">
<g id="Group_138">
<path id="Vector_68" d="M740.75 543.272C740.792 543.272 740.834 543.272 740.876 543.251C740.918 543.23 740.939 543.188 740.96 543.167C740.981 543.125 740.981 543.104 740.981 543.062C741.002 543.041 741.002 543.02 740.981 542.978C740.981 542.957 740.96 542.915 740.939 542.894C740.939 542.873 740.897 542.852 740.876 542.831L534.467 423.656C534.425 423.635 534.362 423.635 534.299 423.635C534.236 423.656 534.173 423.698 534.152 423.761C534.131 423.782 534.11 423.803 534.11 423.845C534.11 423.866 534.11 423.908 534.11 423.929C534.131 423.971 534.152 423.992 534.152 424.013C534.173 424.034 534.215 424.055 534.236 424.076L740.645 543.251C740.687 543.272 740.708 543.272 740.75 543.272Z" fill="#0080FF"/>
</g>
</g>
<g id="Group_139">
<g id="Group_140">
<path id="Vector_69" d="M701.98 559.634C702.001 559.634 702.001 559.634 702.022 559.634C702.043 559.634 702.043 559.613 702.064 559.613C702.064 559.592 702.085 559.592 702.085 559.571C702.085 559.55 702.106 559.529 702.106 559.529V523.577C702.106 523.556 702.085 523.535 702.085 523.535C702.085 523.514 702.064 523.493 702.064 523.493C702.043 523.472 702.043 523.472 702.022 523.451C702.001 523.451 702.001 523.451 701.98 523.451C701.938 523.451 701.917 523.472 701.896 523.493C701.875 523.514 701.854 523.535 701.854 523.577V559.529C701.854 559.529 701.854 559.55 701.875 559.571C701.875 559.592 701.875 559.592 701.896 559.613C701.896 559.613 701.917 559.634 701.938 559.634C701.938 559.634 701.959 559.634 701.98 559.634Z" fill="#0080FF"/>
</g>
</g>
<g id="Group_141">
<g id="Group_142">
<path id="Vector_70" d="M653.209 531.486C653.23 531.486 653.272 531.486 653.293 531.465C653.314 531.444 653.335 531.402 653.335 531.381V495.996C653.335 495.954 653.314 495.933 653.293 495.912C653.272 495.891 653.23 495.87 653.209 495.87C653.167 495.87 653.146 495.891 653.125 495.912C653.104 495.933 653.083 495.954 653.083 495.996V531.381C653.083 531.402 653.104 531.444 653.125 531.465C653.146 531.486 653.188 531.486 653.209 531.486Z" fill="#0080FF"/>
</g>
</g>
<g id="Group_143">
<g id="Group_144">
<path id="Vector_71" d="M604.436 503.333C604.478 503.333 604.499 503.312 604.52 503.291C604.541 503.27 604.562 503.249 604.562 503.207V474.311C604.562 474.269 604.541 474.248 604.52 474.227C604.499 474.206 604.478 474.185 604.436 474.185C604.415 474.185 604.373 474.206 604.352 474.227C604.331 474.248 604.31 474.269 604.31 474.311V503.207C604.31 503.249 604.331 503.27 604.352 503.312C604.373 503.333 604.415 503.333 604.436 503.333Z" fill="#0080FF"/>
</g>
</g>
<g id="Group_145">
<g id="Group_146">
<path id="Vector_72" d="M555.669 475.18C555.69 475.18 555.69 475.182 555.711 475.161C555.732 475.161 555.732 475.161 555.753 475.14C555.753 475.14 555.774 475.119 555.774 475.098C555.774 475.098 555.795 475.075 555.795 475.054V440.824C555.795 440.803 555.774 440.782 555.774 440.761C555.774 440.761 555.774 440.742 555.753 440.742C555.732 440.721 555.732 440.719 555.711 440.698C555.69 440.698 555.69 440.698 555.669 440.698C555.648 440.698 555.627 440.698 555.627 440.698C555.606 440.719 555.585 440.721 555.585 440.742C555.564 440.742 555.564 440.763 555.564 440.784C555.543 440.784 555.543 440.803 555.543 440.824V475.054C555.543 475.096 555.564 475.119 555.585 475.14C555.606 475.161 555.627 475.18 555.669 475.18Z" fill="#0080FF"/>
</g>
</g>
<g id="Group_147">
<g id="Group_148">
<path id="Vector_73" d="M506.897 446.98C506.939 446.98 506.96 446.98 506.981 446.959C507.002 446.938 507.023 446.896 507.023 446.875V413.233C507.023 413.191 507.002 413.17 506.981 413.149C506.96 413.128 506.939 413.107 506.897 413.107C506.855 413.107 506.834 413.128 506.813 413.149C506.792 413.17 506.771 413.191 506.771 413.233V446.896C506.792 446.917 506.792 446.938 506.813 446.959C506.834 446.98 506.876 446.98 506.897 446.98Z" fill="#0080FF"/>
</g>
</g>
<g id="Group_149">
<g id="Group_150">
<path id="Vector_74" d="M576.666 363.106C576.582 362.35 576.351 361.636 575.973 360.985C575.595 360.334 575.091 359.767 574.482 359.326C574.566 360.061 574.797 360.796 575.154 361.447C575.532 362.098 576.036 362.644 576.645 363.106H576.666ZM610.571 351.972C610.487 351.216 610.256 350.502 609.878 349.851C609.5 349.2 608.996 348.633 608.387 348.192C608.471 348.948 608.702 349.662 609.08 350.313C609.437 350.964 609.941 351.51 610.55 351.972H610.571ZM663.05 371.298C662.966 370.542 662.714 369.828 662.336 369.177C661.958 368.526 661.454 367.959 660.845 367.518C660.929 368.274 661.181 368.988 661.559 369.639C661.937 370.29 662.441 370.857 663.05 371.298ZM714.174 428.265C714.069 427.53 713.838 426.816 713.46 426.165C713.082 425.514 712.578 424.947 711.969 424.506C712.053 425.241 712.305 425.976 712.683 426.627C713.061 427.257 713.565 427.824 714.174 428.265ZM771.147 475.406C771.063 474.671 770.832 473.936 770.454 473.285C770.076 472.634 769.572 472.067 768.963 471.626C769.047 472.382 769.278 473.096 769.656 473.747C770.034 474.398 770.538 474.965 771.147 475.406ZM570.009 354.683L572.634 353.15C573.726 352.52 575.238 352.604 576.897 353.57C579.396 355.187 581.265 357.581 582.21 360.395C583.554 360.332 584.856 360.017 586.074 359.429C588.258 357.791 590.316 355.964 592.227 353.99C594.642 351.596 596.994 349.307 599.493 348.005L598.968 348.278L601.488 346.808L601.614 346.745C601.824 346.619 602.055 346.493 602.265 346.388C602.307 345.8 602.475 345.254 602.79 344.75C603.084 344.246 603.504 343.826 604.008 343.511H603.945L606.318 342.146L606.57 341.978C607.662 341.348 609.174 341.432 610.812 342.398C612.576 343.553 614.025 345.086 615.075 346.913C616.104 348.74 616.692 350.798 616.776 352.898C619.338 356.489 621.417 360.857 623.412 365.141C626.877 372.491 630.132 379.4 635.634 382.592C636.222 382.97 636.894 383.222 637.587 383.348C638.28 383.453 638.994 383.432 639.666 383.264C641.514 381.647 643.173 379.085 644.895 376.439C647.226 372.848 649.62 369.215 652.686 367.493L652.581 367.556L654.639 366.338C654.723 364.637 655.374 363.44 656.382 362.852L659.007 361.34C660.099 360.71 661.611 360.794 663.27 361.76C666.546 363.65 669.234 368.291 669.192 372.512C673.413 378.917 675.975 388.661 678.474 398.132C681.288 408.863 684.207 419.972 688.764 422.597C693.972 425.6 696.786 424.34 700.062 422.87C702.015 421.841 704.157 421.274 706.341 421.169C706.635 420.56 707.139 420.056 707.748 419.762L707.517 419.846L710.163 418.313C711.255 417.683 712.746 417.788 714.426 418.733C716.127 419.846 717.576 421.358 718.605 423.143C719.634 424.907 720.243 426.902 720.369 428.939C724.653 433.853 728.349 440.615 732.003 447.251C736.581 455.63 740.886 463.526 745.527 466.193C750.357 468.986 753.234 468.461 756.573 467.873C758.946 467.327 761.403 467.222 763.818 467.579C764.133 467.222 764.532 466.949 764.973 466.781C764.826 466.844 764.679 466.907 764.532 466.991L766.905 465.605L767.178 465.458C768.27 464.828 769.782 464.912 771.441 465.878C773.163 466.991 774.612 468.524 775.641 470.309C776.691 472.115 777.279 474.131 777.384 476.189C777.384 478.079 776.712 479.423 775.641 480.032L773.142 481.481L773.016 481.565C771.924 482.216 770.412 482.132 768.753 481.166C766.107 479.444 764.154 476.84 763.251 473.837C760.815 473.312 758.295 473.354 755.88 473.942C752.394 474.572 748.782 475.223 742.881 471.821C736.728 468.272 731.667 459.032 726.753 450.086C723.519 444.227 720.285 438.263 716.757 434L715.959 434.441C715.959 434.441 716.001 434.399 716.022 434.378C714.93 435.071 713.397 435.008 711.696 434.042C709.239 432.446 707.391 430.094 706.425 427.322C703.8 427.007 701.805 427.889 699.747 428.813C696.429 430.325 692.67 432.047 686.097 428.225C679.062 424.172 675.87 411.992 672.489 399.161C670.347 390.992 668.142 382.655 665.139 377.3L664.824 377.468L665.118 377.279C664.026 378.098 662.388 378.098 660.582 377.069C658.545 375.788 656.949 373.961 655.92 371.777C654.051 373.457 652.35 376.04 650.628 378.686C648.444 382.046 646.218 385.448 643.425 387.086L640.8 388.619L640.926 388.514C638.7 389.879 636.138 390.089 632.925 388.241C625.659 384.041 621.522 375.263 617.868 367.535C616.398 364.196 614.718 360.962 612.849 357.833L612.324 358.127C611.232 358.778 609.72 358.694 608.061 357.728C605.835 356.321 604.113 354.263 603.105 351.806C602.958 351.869 602.811 351.932 602.664 351.995C600.9 353.402 599.199 354.914 597.624 356.531C595.209 358.904 592.689 361.382 589.854 363.062L587.208 364.595C585.675 365.519 583.995 366.128 582.231 366.401C581.958 366.968 581.538 367.451 581.013 367.787L578.367 369.32C578.451 369.257 578.514 369.194 578.598 369.131C577.485 369.95 575.91 369.95 574.125 368.9C572.382 367.766 570.933 366.254 569.904 364.448C568.875 362.663 568.266 360.647 568.161 358.589C568.245 356.636 568.917 355.313 570.009 354.683Z" fill="#FF906B"/>
</g>
</g>
<g id="Group_151">
<g id="Group_152">
<path id="Vector_75" d="M574.24 364.797C575.584 365.595 576.676 364.944 576.676 363.39C576.634 362.55 576.384 361.731 575.964 360.996C575.544 360.261 574.954 359.631 574.24 359.169C572.896 358.371 571.827 359.043 571.827 360.576C571.869 361.416 572.1 362.235 572.52 362.97C572.94 363.705 573.507 364.314 574.221 364.797H574.24ZM608.149 353.655C609.514 354.453 610.583 353.802 610.583 352.248C610.541 351.408 610.289 350.589 609.869 349.854C609.449 349.119 608.863 348.51 608.149 348.048C606.805 347.229 605.732 347.88 605.732 349.434C605.774 350.274 606.005 351.093 606.425 351.828C606.845 352.563 607.433 353.193 608.126 353.655H608.149ZM660.622 372.969C661.966 373.788 663.039 373.137 663.039 371.583C662.997 370.743 662.766 369.924 662.346 369.189C661.926 368.454 661.336 367.845 660.622 367.383C659.278 366.564 658.207 367.215 658.165 368.769C658.207 369.609 658.461 370.428 658.902 371.163C659.322 371.898 659.908 372.507 660.622 372.969ZM711.736 429.948C713.08 430.767 714.172 430.116 714.172 428.562C714.13 427.722 713.88 426.903 713.46 426.168C713.04 425.433 712.45 424.803 711.736 424.362C710.392 423.543 709.321 424.194 709.321 425.748C709.363 426.588 709.615 427.407 710.035 428.142C710.455 428.877 711.043 429.486 711.736 429.948ZM768.721 477.099C770.086 477.897 771.157 477.246 771.157 475.692C771.115 474.852 770.865 474.033 770.445 473.298C770.025 472.563 769.435 471.954 768.721 471.471C767.377 470.673 766.308 471.345 766.308 472.878C766.35 473.718 766.6 474.537 767.02 475.272C767.44 476.007 768.028 476.637 768.721 477.099ZM574.255 355.104C576.733 356.721 578.602 359.136 579.568 361.929C584.272 361.782 588.306 357.855 592.212 353.991C595.488 350.757 598.68 347.67 602.187 347.04C602.355 343.512 604.978 342.126 608.149 343.974C609.913 345.108 611.362 346.662 612.412 348.489C613.441 350.316 614.029 352.374 614.113 354.474C616.675 358.065 618.756 362.433 620.772 366.717C624.195 374.067 627.471 380.976 632.973 384.168C638.034 387.087 641.373 381.921 644.922 376.482C647.715 372.177 650.569 367.788 654.601 366.738C654.601 362.937 657.31 361.425 660.607 363.315C663.904 365.226 666.571 369.846 666.55 374.067C670.75 380.535 673.312 390.216 675.811 399.687C678.625 410.439 681.565 421.527 686.101 424.173C691.33 427.176 694.123 425.916 697.399 424.425C699.73 423.396 702.25 422.262 705.799 422.913C706.177 419.721 708.697 418.545 711.763 420.309C713.485 421.422 714.913 422.934 715.942 424.698C716.971 426.483 717.582 428.457 717.729 430.515C721.992 435.429 725.709 442.191 729.342 448.827C733.92 457.206 738.225 465.102 742.866 467.769C747.717 470.562 750.573 470.037 753.912 469.428C756.873 468.714 759.939 468.756 762.879 469.533C763.425 466.719 765.859 465.753 768.736 467.433C770.479 468.567 771.928 470.079 772.957 471.885C773.986 473.67 774.595 475.686 774.7 477.744C774.7 481.545 772.014 483.078 768.717 481.167C766.071 479.466 764.139 476.862 763.236 473.838C760.8 473.313 758.278 473.355 755.842 473.943C752.356 474.573 748.746 475.245 742.866 471.843C736.692 468.294 731.631 459.033 726.717 450.087C723.483 444.186 720.165 438.18 716.637 433.896C715.545 435.072 713.737 435.219 711.7 434.043C709.243 432.468 707.397 430.095 706.431 427.344C703.806 427.008 701.809 427.911 699.751 428.835C696.433 430.326 692.676 432.069 686.124 428.226C679.068 424.194 675.874 412.014 672.493 399.162C670.351 390.993 668.148 382.635 665.124 377.301C664.032 378.099 662.392 378.099 660.586 377.091C658.528 375.789 656.89 373.899 655.882 371.694C652.879 372.744 650.485 376.419 648.007 380.241C644.101 386.205 640.092 392.4 632.931 388.242C625.77 384.105 621.528 375.285 617.874 367.536C616.404 364.176 614.722 360.942 612.832 357.792C611.719 358.8 610.018 358.842 608.107 357.75C605.881 356.322 604.138 354.264 603.13 351.828C600.484 352.71 597.798 355.356 595.068 358.086C590.826 362.265 586.122 366.843 580.137 366.465C579.696 369.51 577.195 370.602 574.213 368.88C572.47 367.767 571.021 366.234 569.992 364.449C568.963 362.643 568.354 360.627 568.249 358.569C568.249 354.747 570.937 353.214 574.255 355.104Z" fill="#FF6D3F"/>
</g>
</g>
<g id="Group_153">
<g id="Group_154">
<path id="Vector_76" d="M542.746 389.527C542.662 388.771 542.431 388.057 542.053 387.406C541.675 386.755 541.171 386.188 540.562 385.747C540.646 386.503 540.877 387.217 541.255 387.868C541.633 388.519 542.137 389.086 542.746 389.527ZM603.646 412.352C603.562 411.617 603.331 410.903 602.953 410.252C602.575 409.601 602.071 409.034 601.462 408.593C601.546 409.328 601.798 410.063 602.155 410.714C602.533 411.344 603.037 411.911 603.646 412.352ZM671.959 410.065C671.875 409.309 671.644 408.595 671.266 407.944C670.888 407.293 670.384 406.726 669.775 406.285C669.859 407.041 670.09 407.755 670.468 408.406C670.846 409.057 671.35 409.624 671.959 410.065ZM737.292 488.112C737.208 487.356 736.977 486.642 736.599 485.991C736.221 485.34 735.717 484.773 735.108 484.332C735.192 485.088 735.423 485.802 735.801 486.453C736.179 487.104 736.704 487.671 737.292 488.112ZM536.11 381.119L538.714 379.586C539.806 378.956 541.318 379.04 542.977 380.006C544.72 381.14 546.171 382.694 547.221 384.5C548.25 386.306 548.836 388.343 548.941 390.422C549.361 390.926 549.802 391.409 550.222 391.934C553.939 396.323 558.559 401.762 568.051 407.264C574.456 410.96 577.879 409.49 581.533 407.39C581.953 407.159 582.331 406.907 582.772 406.655C586.195 404.681 590.04 402.686 596.445 404.45C596.718 404.156 597.073 403.925 597.451 403.778C597.283 403.841 597.136 403.904 596.989 403.988L599.635 402.455C600.727 401.825 602.218 401.909 603.877 402.875C606.733 404.492 609.129 408.23 609.696 411.653C615.828 416.714 619.333 422.783 622.483 428.264C626.305 434.921 629.917 441.179 638.065 445.883C638.674 446.303 639.369 446.576 640.083 446.702C640.818 446.828 641.551 446.828 642.265 446.66C645.94 443.237 648.609 435.11 651.213 427.151C654.258 417.932 657.343 408.482 662.404 405.815L662.133 405.941L663.582 405.143C663.687 403.442 664.336 402.245 665.365 401.678L667.99 400.166C669.082 399.536 670.573 399.62 672.232 400.586C673.891 401.657 675.298 403.106 676.327 404.807C677.356 406.487 677.988 408.398 678.177 410.372C684.183 418.541 687.858 432.548 691.701 447.185C696.195 464.363 700.857 482.129 708.795 486.707C714.192 489.815 717.676 489.941 720.364 488.891C721.12 488.324 721.834 487.673 722.548 487.043C723.619 486.014 724.795 485.111 726.076 484.355L725.826 484.481L728.47 482.948C728.638 482.843 728.827 482.759 728.995 482.675C729.037 482.087 729.207 481.499 729.501 480.995C729.816 480.491 730.213 480.05 730.717 479.735L731.641 479.189L731.914 479.042L733.216 478.265C733.216 478.265 733.323 478.181 733.365 478.181C734.457 477.551 735.948 477.656 737.607 478.601C739.35 479.735 740.797 481.268 741.826 483.053C742.855 484.859 743.466 486.875 743.571 488.933C743.571 490.823 742.899 492.167 741.807 492.755L739.182 494.288C738.09 494.939 736.576 494.855 734.917 493.889C732.733 492.503 731.032 490.487 730.003 488.114C729.877 488.135 729.751 488.177 729.604 488.219C729.079 488.639 728.556 489.122 727.989 489.626C726.834 490.718 725.553 491.705 724.188 492.566L721.563 494.099L721.752 493.973C718.434 495.968 713.877 496.766 706.17 492.293C695.712 486.287 690.649 466.904 685.735 448.172C682.501 435.782 679.162 423.14 674.626 415.79L673.828 416.252C673.849 416.231 673.893 416.21 673.914 416.189C672.822 416.882 671.289 416.819 669.588 415.853C667.635 414.614 666.058 412.85 665.029 410.771C661.963 414.53 659.592 421.733 657.282 428.81C654.258 438.05 651.148 447.521 646.108 450.461L643.464 451.994H643.527C641.28 453.317 638.674 453.38 635.44 451.532C625.843 445.988 621.328 438.176 617.359 431.267C614.524 426.332 611.775 421.628 607.239 417.575L606.796 417.848L605.473 418.646C605.536 418.646 605.559 418.583 605.601 418.541C604.509 419.276 602.955 419.234 601.233 418.226C598.566 416.504 596.611 413.858 595.729 410.792C589.87 408.86 586.447 410.456 583.066 412.409L581.913 413.081L582.27 412.871C578.112 415.286 573.805 417.827 565.447 412.976C555.073 407.012 549.802 400.796 545.959 396.26C545.728 395.966 545.497 395.693 545.266 395.462L544.573 395.861C544.573 395.861 544.617 395.819 544.638 395.798C543.546 396.47 542.034 396.428 540.333 395.441C538.59 394.307 537.139 392.795 536.11 390.989C535.081 389.204 534.472 387.188 534.367 385.109C534.346 383.072 535.039 381.728 536.11 381.119Z" fill="#5DA5FD"/>
</g>
</g>
<g id="Group_155">
<g id="Group_156">
<path id="Vector_77" d="M540.343 391.212C541.687 392.01 542.781 391.359 542.781 389.826C542.739 388.965 542.487 388.146 542.067 387.411C541.647 386.676 541.057 386.067 540.343 385.605C538.999 384.786 537.93 385.458 537.93 386.991C537.972 387.831 538.203 388.65 538.623 389.385C539.043 390.12 539.631 390.75 540.324 391.212H540.343ZM601.243 414.035C602.608 414.854 603.681 414.203 603.681 412.649C603.639 411.809 603.387 410.99 602.967 410.255C602.547 409.52 601.957 408.89 601.243 408.449C599.899 407.63 598.83 408.281 598.83 409.835C598.872 410.675 599.103 411.494 599.523 412.229C599.943 412.964 600.531 413.573 601.224 414.035H601.243ZM669.556 411.75C670.921 412.548 671.992 411.897 671.992 410.364C671.95 409.503 671.7 408.684 671.28 407.949C670.86 407.214 670.27 406.605 669.556 406.122C668.212 405.324 667.143 405.996 667.143 407.529C667.185 408.369 667.416 409.188 667.836 409.923C668.256 410.658 668.844 411.288 669.537 411.75H669.556ZM734.9 489.796C736.244 490.594 737.336 489.943 737.336 488.389C737.294 487.549 737.04 486.73 736.62 485.995C736.2 485.26 735.614 484.651 734.9 484.168C733.556 483.37 732.485 484.042 732.485 485.575C732.527 486.415 732.756 487.234 733.176 487.969C733.596 488.683 734.186 489.313 734.879 489.775L734.9 489.796ZM540.362 381.535C542.105 382.669 543.554 384.202 544.583 386.029C545.633 387.835 546.219 389.872 546.303 391.951C546.744 392.434 547.166 392.938 547.607 393.463C551.324 397.831 555.942 403.291 565.434 408.793C572.322 412.762 575.768 410.767 579.758 408.436C583.538 406.21 587.778 403.795 595.401 406.462C595.989 403.69 598.406 402.745 601.262 404.404C604.118 406.042 606.51 409.738 607.077 413.182C613.209 418.243 616.716 424.312 619.866 429.793C623.688 436.429 627.302 442.708 635.45 447.412C643.136 451.864 647.252 439.285 651.221 427.147C654.455 417.235 657.794 407.05 663.569 405.349C663.674 401.695 666.32 400.246 669.575 402.115C671.234 403.207 672.618 404.656 673.647 406.336C674.676 408.037 675.306 409.948 675.516 411.922C681.501 420.07 685.199 434.077 689.021 448.735C693.515 465.913 698.177 483.679 706.115 488.257C715.271 493.528 718.944 490.252 722.514 487.06C724.383 485.38 726.296 483.7 728.9 483.448C728.984 479.773 731.651 478.282 734.906 480.172C736.649 481.306 738.077 482.818 739.127 484.624C740.156 486.409 740.744 488.425 740.87 490.483C740.87 494.263 738.161 495.817 734.864 493.906C732.68 492.52 730.979 490.504 729.971 488.11C728.27 488.53 726.882 489.727 725.307 491.155C721.59 494.473 716.993 498.589 706.115 492.31C695.678 486.304 690.596 466.921 685.682 448.189C682.448 435.736 679.065 422.968 674.508 415.681C673.437 416.899 671.591 417.046 669.533 415.87C667.391 414.505 665.711 412.552 664.682 410.263C660.398 412.573 657.416 421.561 654.581 430.36C650.213 443.674 645.698 457.45 635.408 451.507C625.79 445.963 621.296 438.151 617.327 431.242C614.387 426.139 611.55 421.267 606.72 417.109C605.817 419.083 603.675 419.608 601.197 418.159C598.53 416.437 596.579 413.791 595.676 410.725C589.376 408.646 585.867 410.662 582.234 412.783C578.076 415.198 573.773 417.739 565.394 412.888C555.02 406.924 549.77 400.708 545.927 396.172L545.127 395.248C544.035 396.361 542.25 396.487 540.276 395.332C538.533 394.198 537.086 392.665 536.057 390.88C535.028 389.074 534.419 387.058 534.314 385C534.356 381.157 537.065 379.624 540.362 381.535Z" fill="#2A72CA"/>
</g>
</g>
<g id="Group_157">
<g id="Group_158">
<path id="Vector_78" d="M509.118 410.648C509.013 409.913 508.782 409.199 508.404 408.548C508.026 407.897 507.522 407.33 506.913 406.889C506.997 407.624 507.249 408.359 507.627 409.01C507.984 409.64 508.509 410.207 509.118 410.648ZM580.329 444.227C580.245 443.471 579.993 442.757 579.615 442.106C579.237 441.455 578.733 440.888 578.124 440.447C578.208 441.203 578.46 441.917 578.838 442.568C579.216 443.219 579.72 443.765 580.329 444.227ZM632.18 461.754C632.096 460.998 631.844 460.284 631.466 459.633C631.088 458.982 630.584 458.415 629.975 457.974C630.059 458.73 630.311 459.444 630.689 460.095C631.067 460.746 631.571 461.313 632.18 461.754ZM703.632 521.875C703.527 521.14 703.296 520.426 702.918 519.775C702.54 519.124 702.036 518.557 701.427 518.116C701.511 518.851 701.742 519.586 702.12 520.237C702.498 520.888 703.023 521.434 703.632 521.875ZM502.507 402.244L505.132 400.711C506.224 400.081 507.736 400.165 509.395 401.131C511.138 402.265 512.566 403.798 513.616 405.583C514.645 407.389 515.254 409.384 515.359 411.463C515.359 411.694 515.359 411.904 515.359 412.135C517.081 414.088 519.097 415.789 521.323 417.154C524.221 418.834 526.594 418.981 529.009 419.107C531.424 419.233 534.112 419.401 537.262 421.207C542.029 423.958 544.822 427.801 547.3 431.161C549.778 434.542 551.878 437.398 555.889 439.729C559.333 441.703 561.895 440.317 564.856 438.7C567.271 437.398 569.833 436.012 573.256 436.222C573.55 435.928 573.907 435.697 574.306 435.571C574.117 435.634 573.928 435.718 573.76 435.802L576.406 434.269C577.477 433.639 578.989 433.723 580.648 434.689C583.609 436.411 586.066 440.338 586.528 443.887C589.993 447.835 592.597 452.749 595.012 457.243C598.54 463.795 601.564 469.444 606.415 472.237C606.961 472.594 607.57 472.825 608.2 472.93C608.83 473.035 609.481 473.014 610.111 472.846C611.854 471.313 613.492 468.877 615.151 466.399C617.713 462.535 620.338 458.608 623.845 457.159C623.467 457.306 623.11 457.495 622.774 457.684L623.845 457.075C623.845 455.227 624.538 453.946 625.609 453.337L628.213 451.804C629.305 451.174 630.817 451.258 632.476 452.224C634.156 453.337 635.584 454.828 636.592 456.592C637.621 458.335 638.23 460.309 638.356 462.325C641.779 466.441 644.404 471.817 646.945 477.067C650.473 484.333 653.812 491.179 658.915 494.14C664.963 497.605 670.318 496.261 675.064 495.085C679.201 494.056 683.086 493.069 687.055 495.358C691.906 498.172 697.114 505.669 700.705 511.633C701.818 511.528 702.952 511.801 703.876 512.431C705.619 513.565 707.068 515.077 708.097 516.883C709.126 518.668 709.735 520.684 709.84 522.763C709.84 524.653 709.168 525.976 708.097 526.585L705.451 528.118C704.359 528.769 702.847 528.685 701.188 527.719C699.445 526.585 697.996 525.073 696.967 523.267C695.938 521.482 695.329 519.466 695.224 517.408C695.203 516.568 695.392 515.749 695.728 514.972C692.41 509.47 688 503.149 684.43 501.049C681.595 499.432 678.151 500.251 674.497 501.196C669.331 502.477 663.493 503.947 656.311 499.81C649.465 495.862 645.433 487.588 641.548 479.566C639.385 475.135 637.306 470.872 634.828 467.554L634.03 468.037L634.093 467.974C633.001 468.667 631.468 468.604 629.767 467.617C627.898 466.42 626.365 464.761 625.357 462.766C623.656 464.614 622.165 466.609 620.842 468.709C618.7 471.943 616.537 475.177 613.849 476.731L611.224 478.264L611.35 478.159C609.229 479.461 606.751 479.713 603.727 477.949C597.259 474.232 593.437 467.029 589.699 460.078C587.893 456.466 585.793 453.001 583.462 449.725L582.16 450.481C582.16 450.481 582.16 450.481 582.223 450.439C581.131 451.111 579.619 451.027 577.918 450.061C575.188 448.297 573.214 445.588 572.353 442.438C569.329 442.165 566.956 443.425 564.625 444.685C561.412 446.428 558.073 448.234 553.201 445.42C548.098 442.48 545.179 438.511 542.638 435.004C540.265 431.791 538.228 429.04 534.553 426.94C532.138 425.575 530.038 425.449 527.77 425.323C525.082 425.176 522.205 425.008 518.635 422.908C515.884 421.228 513.406 419.149 511.285 416.734L511.201 416.776L510.949 416.923C511.054 416.86 511.159 416.797 511.264 416.713C510.151 417.574 508.513 417.574 506.686 416.503C504.943 415.39 503.515 413.857 502.465 412.072C501.436 410.266 500.827 408.271 500.722 406.192C500.722 404.197 501.394 402.874 502.507 402.244Z" fill="white"/>
</g>
</g>
<g id="Group_159" opacity="0.3">
<g id="Group_160">
<path id="Vector_79" d="M506.68 412.346C508.045 413.165 509.116 412.514 509.116 410.96C509.074 410.12 508.822 409.301 508.402 408.566C507.982 407.831 507.394 407.222 506.68 406.76C505.336 405.941 504.265 406.592 504.265 408.146C504.307 408.986 504.559 409.805 504.979 410.54C505.399 411.275 505.987 411.884 506.68 412.346ZM577.899 445.898C579.243 446.717 580.335 446.066 580.335 444.512C580.293 443.672 580.041 442.853 579.621 442.118C579.201 441.383 578.613 440.774 577.899 440.312C576.555 439.493 575.484 440.144 575.484 441.698C575.526 442.538 575.778 443.357 576.198 444.092C576.618 444.827 577.206 445.436 577.899 445.898ZM629.742 463.441C631.086 464.239 632.178 463.588 632.178 462.034C632.115 461.194 631.884 460.375 631.464 459.64C631.044 458.905 630.456 458.296 629.742 457.813C628.398 457.015 627.327 457.687 627.327 459.22C627.369 460.06 627.6 460.879 628.041 461.614C628.461 462.349 629.049 462.979 629.742 463.441ZM701.194 523.567C702.559 524.386 703.63 523.735 703.63 522.181C703.588 521.341 703.336 520.522 702.916 519.787C702.496 519.052 701.908 518.422 701.194 517.981C699.85 517.162 698.779 517.813 698.779 519.367C698.821 520.207 699.052 521.026 699.493 521.761C699.913 522.496 700.501 523.105 701.194 523.567ZM506.707 402.68C508.45 403.814 509.899 405.326 510.928 407.132C511.978 408.917 512.566 410.933 512.671 413.012C512.671 413.243 512.671 413.453 512.671 413.663C514.393 415.637 516.409 417.338 518.635 418.703C521.533 420.383 523.906 420.509 526.321 420.656C528.757 420.782 531.424 420.929 534.574 422.756C539.341 425.507 542.155 429.329 544.633 432.71C547.111 436.091 549.19 438.947 553.201 441.257C556.645 443.252 559.207 441.866 562.168 440.249C564.94 438.758 567.964 437.141 572.185 437.96C572.899 435.461 575.209 434.642 577.96 436.238C580.942 437.939 583.378 441.887 583.84 445.415C587.305 449.384 589.93 454.298 592.345 458.792C595.852 465.344 598.876 470.993 603.727 473.786C608.389 476.474 611.644 471.581 615.109 466.394C617.671 462.551 620.296 458.603 623.803 457.175C623.803 453.395 626.512 451.862 629.809 453.752C631.51 454.865 632.917 456.356 633.946 458.099C634.975 459.842 635.605 461.795 635.752 463.811C639.175 467.948 641.8 473.324 644.341 478.553C647.869 485.819 651.187 492.665 656.311 495.626C662.359 499.112 667.714 497.768 672.46 496.592C676.597 495.563 680.524 494.576 684.451 496.865C689.302 499.679 694.51 507.155 698.101 513.119C699.235 513.014 700.348 513.308 701.272 513.938C703.015 515.051 704.464 516.584 705.493 518.369C706.522 520.175 707.131 522.191 707.236 524.249C707.236 528.05 704.548 529.583 701.251 527.672C699.508 526.538 698.059 525.026 697.03 523.22C695.98 521.435 695.392 519.419 695.266 517.361C695.266 516.521 695.434 515.681 695.791 514.925C692.473 509.423 688.063 503.081 684.472 501.002C681.658 499.385 678.214 500.204 674.56 501.149C669.394 502.43 663.535 503.9 656.353 499.742C649.507 495.815 645.496 487.52 641.59 479.519C639.427 475.025 637.306 470.699 634.786 467.423C633.715 468.641 631.888 468.788 629.83 467.591C627.856 466.352 626.26 464.588 625.252 462.488C622.648 463.685 620.401 467.003 618.259 470.258C614.458 475.97 610.531 481.871 603.769 477.965C597.322 474.248 593.479 467.045 589.762 460.073C587.893 456.356 585.73 452.807 583.294 449.426C582.286 451.043 580.291 451.4 577.981 450.077C575.251 448.292 573.277 445.583 572.416 442.454C569.392 442.181 567.019 443.441 564.688 444.68C561.475 446.444 558.136 448.25 553.264 445.436C548.161 442.475 545.242 438.527 542.701 435.02C540.328 431.786 538.291 429.035 534.616 426.956C532.201 425.57 530.101 425.444 527.833 425.339C525.145 425.192 522.268 425.024 518.698 422.924C515.947 421.223 513.448 419.144 511.327 416.729C510.214 417.59 508.576 417.59 506.749 416.519C505.006 415.385 503.578 413.873 502.528 412.067C501.499 410.282 500.89 408.266 500.785 406.208C500.722 402.302 503.41 400.769 506.707 402.68Z" fill="#428AE2"/>
</g>
</g>
<g id="Group_161">
<g id="Group_162">
<path id="Vector_80" d="M707.181 562.762C707.223 562.762 707.265 562.764 707.307 562.743C707.328 562.722 707.37 562.678 707.391 562.636C707.391 562.615 707.412 562.596 707.412 562.554C707.412 562.533 707.412 562.489 707.412 562.468C707.412 562.426 707.391 562.407 707.37 562.386C707.349 562.365 707.328 562.344 707.307 562.323L500.877 443.148C500.856 443.148 500.835 443.125 500.793 443.125C500.772 443.125 500.73 443.125 500.709 443.125C500.667 443.146 500.646 443.148 500.625 443.169C500.583 443.19 500.562 443.209 500.562 443.251C500.541 443.272 500.52 443.316 500.52 443.337C500.52 443.358 500.52 443.398 500.52 443.419C500.541 443.461 500.562 443.484 500.562 443.505C500.583 443.526 500.604 443.547 500.646 443.568L707.055 562.743C707.097 562.764 707.139 562.762 707.181 562.762Z" fill="#0080FF"/>
</g>
</g>
<g id="Group_163" opacity="0.2">
<g id="Group_164">
<path id="Vector_81" d="M517.269 329.125C523.821 329.125 530.352 330.553 535.35 333.451C540.348 336.328 542.828 340.108 542.849 343.888C542.828 347.668 540.348 351.448 535.35 354.325C530.373 357.202 523.821 358.63 517.269 358.63C510.717 358.63 504.186 357.202 499.188 354.325C494.19 351.448 491.712 347.668 491.712 343.888C491.712 340.108 494.211 336.328 499.188 333.451C504.186 330.553 510.738 329.125 517.269 329.125Z" fill="#428AE2"/>
</g>
</g>
<g id="Group_165">
<g id="Group_166">
<path id="Vector_82" d="M517.272 326.972C525.231 326.972 532.686 328.757 538.251 331.991C543.837 335.225 546.903 339.425 546.903 343.919C546.903 348.413 543.837 352.634 538.293 355.847C532.749 359.06 525.231 360.866 517.314 360.866C509.397 360.866 501.921 359.081 496.314 355.847C490.728 352.613 487.725 348.413 487.725 343.919C487.725 339.425 490.77 335.183 496.314 331.991C501.858 328.778 509.334 326.972 517.272 326.972ZM517.276 361.556C525.34 361.556 532.921 359.75 538.633 356.453C544.345 353.135 547.579 348.662 547.579 343.916C547.579 339.17 544.408 334.718 538.633 331.379C532.858 328.061 525.34 326.276 517.276 326.276C509.212 326.276 501.631 328.082 495.919 331.379C490.207 334.676 486.973 339.17 486.973 343.916C486.973 348.662 490.144 353.114 495.919 356.453C501.694 359.771 509.212 361.556 517.276 361.556Z" fill="#0080FF"/>
</g>
</g>
<g id="Group_167">
<g id="Group_168">
<path id="Vector_83" d="M499.19 318.724C504.188 315.826 510.74 314.398 517.271 314.398C523.802 314.398 530.354 315.826 535.352 318.724C540.35 321.601 542.87 325.381 542.87 329.119V335.419C542.87 339.199 540.371 342.958 535.373 345.856C530.396 348.733 523.844 350.161 517.292 350.161C510.74 350.161 504.209 348.733 499.211 345.856C494.213 342.958 491.735 339.199 491.735 335.419V329.119C491.714 325.381 494.213 321.601 499.19 318.724Z" fill="#C6DDEB"/>
</g>
</g>
<g id="Group_169">
<g id="Group_170">
<path id="Vector_84" d="M517.273 314.397C523.825 314.397 530.356 315.825 535.354 318.723C540.352 321.6 542.851 325.38 542.872 329.118C542.851 332.877 540.371 336.678 535.373 339.555C530.396 342.453 523.844 343.881 517.292 343.881C510.74 343.881 504.209 342.432 499.211 339.555C494.213 336.678 491.735 332.898 491.735 329.118C491.735 325.338 494.234 321.558 499.211 318.681C504.209 315.804 510.742 314.397 517.273 314.397Z" fill="white"/>
</g>
</g>
<g id="Group_171" opacity="0.2">
<g id="Group_172">
<path id="Vector_85" d="M495.672 636.7C502.224 636.7 508.755 638.128 513.753 641.026C518.751 643.903 521.231 647.683 521.252 651.463C521.231 655.243 518.751 659.023 513.753 661.9C508.776 664.777 502.224 666.205 495.672 666.205C489.12 666.205 482.589 664.777 477.591 661.9C472.593 659.023 470.115 655.243 470.115 651.463C470.115 647.683 472.614 643.903 477.591 641.026C482.589 638.128 489.141 636.7 495.672 636.7Z" fill="#428AE2"/>
</g>
</g>
<g id="Group_173">
<g id="Group_174">
<path id="Vector_86" d="M495.678 634.518C503.637 634.518 511.092 636.303 516.657 639.537C522.243 642.771 525.267 646.992 525.267 651.465C525.267 655.959 522.201 660.201 516.657 663.393C511.113 666.606 503.595 668.412 495.678 668.412C487.761 668.412 480.285 666.627 474.678 663.393C469.092 660.18 466.089 655.959 466.089 651.465C466.089 646.992 469.134 642.75 474.678 639.537C480.222 636.324 487.74 634.518 495.678 634.518ZM495.686 669.105C503.75 669.105 511.31 667.299 517.043 664.002C522.755 660.705 525.989 656.211 525.989 651.465C525.989 646.719 522.818 642.267 517.043 638.949C511.268 635.61 503.75 633.825 495.686 633.825C487.601 633.825 480.02 635.631 474.329 638.949C468.617 642.246 465.362 646.719 465.362 651.465C465.362 656.232 468.533 660.663 474.308 664.002C480.083 667.341 487.622 669.105 495.686 669.105Z" fill="#0080FF"/>
</g>
</g>
<g id="Group_175">
<g id="Group_176">
<path id="Vector_87" d="M477.592 626.272C482.59 623.395 489.142 621.946 495.673 621.946C502.204 621.946 508.756 623.395 513.754 626.272C518.752 629.149 521.232 632.929 521.253 636.709C521.232 636.709 521.232 643.009 521.253 643.009C521.232 646.789 518.752 650.548 513.754 653.446C508.777 656.323 502.225 657.751 495.673 657.751C489.121 657.751 482.59 656.323 477.592 653.446C472.594 650.548 470.116 646.789 470.116 643.009V636.688C470.116 632.929 472.636 629.149 477.592 626.272Z" fill="#C6DDEB"/>
</g>
</g>
<g id="Group_177">
<g id="Group_178">
<path id="Vector_88" d="M495.673 621.947C502.225 621.947 508.756 623.396 513.754 626.273C518.752 629.15 521.232 632.93 521.253 636.71C521.232 640.49 518.752 644.27 513.754 647.147C508.777 650.024 502.225 651.473 495.673 651.473C489.121 651.473 482.59 650.024 477.592 647.147C472.594 644.27 470.116 640.49 470.116 636.71C470.116 632.951 472.615 629.15 477.592 626.273C482.59 623.396 489.142 621.947 495.673 621.947Z" fill="white"/>
</g>
</g>
</g>
<g id="dash-svg-verbar">
<g id="Group_179" opacity="0.2">
<g id="Group_180">
<path id="Vector_89" d="M660.56 701.449C658.796 702.457 658.796 704.095 660.56 705.103L688.112 721.124C689.099 721.607 690.17 721.88 691.283 721.88C692.375 721.88 693.446 721.607 694.433 721.124L722.195 705.103C723.917 704.095 723.938 702.457 722.195 701.449L694.622 685.424C693.635 684.92 692.564 684.668 691.472 684.668C690.359 684.668 689.288 684.92 688.322 685.424L660.56 701.449Z" fill="#428AE2"/>
</g>
</g>
<g id="Group_181">
<g id="Group_182">
<path id="Vector_90" d="M691.493 681.086C692.753 681.065 694.013 681.359 695.126 681.947L728.474 701.33C728.852 701.498 729.188 701.771 729.419 702.107C729.671 702.443 729.818 702.842 729.86 703.241C729.818 703.661 729.65 704.06 729.419 704.417C729.167 704.753 728.831 705.026 728.453 705.194L694.874 724.556C693.74 725.123 692.501 725.417 691.241 725.417C689.981 725.417 688.742 725.123 687.608 724.556L654.239 705.194C653.861 705.026 653.525 704.753 653.273 704.417C653 704.081 652.853 703.682 652.811 703.262C652.853 702.842 653.021 702.443 653.273 702.107C653.525 701.771 653.861 701.498 654.239 701.33L687.818 681.947C688.952 681.359 690.212 681.065 691.493 681.086ZM691.222 726.091C692.608 726.133 693.973 725.797 695.191 725.146L728.77 705.763C729.274 705.574 729.715 705.238 730.03 704.797C730.324 704.356 730.492 703.81 730.492 703.285C730.492 702.739 730.324 702.214 730.03 701.752C729.715 701.311 729.274 700.975 728.77 700.786L695.401 681.403C694.204 680.752 692.839 680.437 691.453 680.458C690.046 680.437 688.66 680.752 687.421 681.424L653.842 700.786C653.359 701.017 652.939 701.374 652.624 701.815C652.33 702.256 652.141 702.76 652.099 703.306C652.141 703.831 652.309 704.335 652.624 704.776C652.918 705.196 653.338 705.553 653.8 705.763L687.169 725.146C688.408 725.818 689.794 726.133 691.222 726.091Z" fill="#0080FF"/>
</g>
</g>
<g id="Group_183">
<g id="Group_184">
<g id="Group_185">
<g id="Group_186">
<path id="Vector_91" d="M660.517 632.553L688.088 648.576C689.054 649.08 690.146 649.332 691.238 649.332C692.33 649.332 693.422 649.08 694.388 648.576L722.15 632.572C722.507 632.404 722.824 632.152 723.055 631.816C723.286 631.501 723.412 631.125 723.454 630.726V692.466C723.412 692.865 723.286 693.243 723.055 693.558C722.824 693.894 722.507 694.146 722.15 694.314L694.411 710.316C693.424 710.82 692.351 711.072 691.238 711.072C690.146 711.072 689.075 710.82 688.088 710.316L660.517 694.291C660.16 694.144 659.866 693.892 659.635 693.577C659.404 693.262 659.278 692.886 659.236 692.508V630.747C659.278 631.146 659.404 631.524 659.635 631.839C659.866 632.154 660.16 632.406 660.517 632.553Z" fill="#DB5D34"/>
</g>
</g>
<g id="Group_187">
<g id="Group_188">
<path id="Vector_92" d="M660.56 628.922C658.796 629.909 658.796 631.547 660.56 632.555L688.112 648.578C689.099 649.082 690.17 649.334 691.283 649.334C692.375 649.334 693.446 649.082 694.433 648.578L722.195 632.576C723.917 631.547 723.938 629.909 722.195 628.901L694.601 612.857C693.614 612.353 692.543 612.101 691.43 612.101C690.338 612.101 689.267 612.353 688.28 612.857L660.56 628.922Z" fill="#FF6D3F"/>
</g>
</g>
</g>
</g>
<g id="Group_189" opacity="0.2">
<g id="Group_190">
<path id="Vector_93" d="M710.982 729.152C709.26 730.16 709.239 731.796 710.982 732.804L738.555 748.829C739.542 749.312 740.613 749.562 741.726 749.562C742.818 749.562 743.889 749.312 744.876 748.829L772.617 732.804C774.36 731.796 774.36 730.16 772.617 729.152L745.044 713.129C744.078 712.625 742.986 712.373 741.894 712.373C740.802 712.373 739.731 712.625 738.744 713.129L710.982 729.152Z" fill="#428AE2"/>
</g>
</g>
<g id="Group_191">
<g id="Group_192">
<path id="Vector_94" d="M741.927 708.797C743.187 708.776 744.447 709.07 745.56 709.658L778.908 729.041C779.286 729.209 779.622 729.461 779.874 729.818C780.126 730.154 780.273 730.532 780.315 730.952C780.273 731.372 780.105 731.771 779.853 732.107C779.601 732.464 779.265 732.716 778.887 732.905L745.308 752.267C744.195 752.876 742.935 753.17 741.654 753.149C740.394 753.17 739.134 752.876 738 752.267L704.652 732.905C704.274 732.737 703.938 732.464 703.707 732.128C703.455 731.792 703.308 731.393 703.266 730.973C703.308 730.553 703.476 730.154 703.728 729.818C703.98 729.482 704.316 729.209 704.694 729.041L738.252 709.679C739.386 709.07 740.646 708.776 741.927 708.797ZM741.65 753.812C743.036 753.833 744.422 753.497 745.64 752.846L779.219 733.484C779.702 733.253 780.122 732.896 780.437 732.455C780.731 732.014 780.92 731.51 780.962 730.964C780.92 730.439 780.752 729.935 780.437 729.494C780.143 729.053 779.723 728.717 779.24 728.486L745.892 709.103C744.674 708.452 743.309 708.137 741.923 708.158C740.537 708.137 739.172 708.473 737.933 709.124L704.375 728.486C703.892 728.717 703.451 729.074 703.157 729.515C702.842 729.956 702.653 730.46 702.611 731.006C702.653 731.531 702.821 732.035 703.136 732.476C703.43 732.896 703.85 733.253 704.312 733.484L737.681 752.846C738.899 753.497 740.264 753.833 741.65 753.812Z" fill="#0080FF"/>
</g>
</g>
<g id="Group_193">
<g id="Group_194">
<g id="Group_195">
<g id="Group_196">
<path id="Vector_95" d="M710.939 682.365L738.533 698.43C739.499 698.913 740.591 699.186 741.683 699.186C742.775 699.186 743.867 698.913 744.833 698.43L772.595 682.407C772.952 682.239 773.267 681.987 773.498 681.672C773.729 681.336 773.855 680.958 773.897 680.559V720.207C773.855 720.606 773.729 720.984 773.498 721.299C773.267 721.635 772.952 721.887 772.595 722.034L744.833 738.036C743.867 738.519 742.775 738.771 741.683 738.771C740.591 738.771 739.499 738.519 738.533 738.036L710.939 722.013C710.582 721.845 710.267 721.593 710.057 721.278C709.826 720.963 709.7 720.585 709.658 720.207V680.559C709.7 680.937 709.826 681.315 710.057 681.63C710.288 681.945 710.582 682.197 710.939 682.365Z" fill="url(#paint0_linear)"/>
</g>
</g>
<g id="Group_197">
<g id="Group_198">
<path id="Vector_96" d="M710.982 678.716C709.26 679.724 709.239 681.36 710.982 682.368L738.534 698.412C739.5 698.916 740.592 699.191 741.684 699.191C742.776 699.191 743.868 698.916 744.834 698.412L772.596 682.41C774.318 681.402 774.339 679.745 772.596 678.758L745.023 662.735C744.036 662.231 742.965 661.979 741.873 661.979C740.781 661.979 739.689 662.231 738.723 662.735L710.982 678.716Z" fill="#5DA5FD"/>
</g>
</g>
</g>
</g>
<g id="Group_199" opacity="0.2">
<g id="Group_200">
<path id="Vector_97" d="M758.997 757.51C757.275 758.518 757.254 760.153 758.997 761.161L786.57 777.163C787.557 777.667 788.628 777.919 789.741 777.919C790.833 777.919 791.904 777.667 792.891 777.163L820.632 761.161C822.375 760.153 822.396 758.518 820.632 757.51L793.059 741.487C792.093 740.983 791.001 740.731 789.909 740.731C788.817 740.731 787.746 740.983 786.759 741.487L758.997 757.51Z" fill="#428AE2"/>
</g>
</g>
<g id="Group_201">
<g id="Group_202">
<path id="Vector_98" d="M789.943 737.145C791.203 737.124 792.463 737.418 793.576 738.006L826.924 757.389C827.302 757.557 827.638 757.83 827.89 758.166C828.142 758.502 828.289 758.901 828.331 759.3C828.289 759.72 828.121 760.119 827.869 760.476C827.617 760.812 827.302 761.085 826.903 761.253L793.324 780.636C792.211 781.224 790.951 781.518 789.67 781.497C788.41 781.539 787.15 781.224 786.016 780.636L752.668 761.253C752.29 761.085 751.954 760.812 751.723 760.497C751.471 760.161 751.324 759.762 751.282 759.342C751.324 758.922 751.492 758.523 751.744 758.187C751.996 757.851 752.311 757.578 752.71 757.41L786.268 738.027C787.402 737.439 788.662 737.145 789.943 737.166V737.145ZM789.685 782.148C791.071 782.19 792.436 781.854 793.654 781.203L827.233 761.82C827.737 761.631 828.178 761.295 828.493 760.854C828.808 760.413 828.955 759.888 828.955 759.342C828.955 758.796 828.808 758.271 828.493 757.809C828.178 757.368 827.737 757.032 827.233 756.843L793.885 737.46C792.646 736.851 791.281 736.515 789.916 736.515C788.53 736.515 787.165 736.851 785.926 737.46L752.368 756.843C751.864 757.074 751.444 757.41 751.15 757.851C750.835 758.292 750.646 758.817 750.604 759.363C750.646 759.888 750.814 760.392 751.129 760.833C751.423 761.253 751.843 761.61 752.326 761.82L785.674 781.203C786.892 781.854 788.278 782.19 789.685 782.148Z" fill="#0080FF"/>
</g>
</g>
<g id="Group_203">
<g id="Group_204">
<g id="Group_205">
<g id="Group_206">
<path id="Vector_99" d="M758.973 723.336L786.546 739.359C787.512 739.842 788.604 740.115 789.696 740.115C790.788 740.115 791.88 739.842 792.867 739.359L820.608 723.336C820.965 723.168 821.28 722.916 821.511 722.58C821.742 722.265 821.868 721.887 821.91 721.488V748.515C821.868 748.914 821.742 749.292 821.511 749.628C821.28 749.943 820.965 750.195 820.587 750.363L792.846 766.386C791.88 766.89 790.788 767.142 789.696 767.142C788.604 767.142 787.512 766.89 786.546 766.386L758.973 750.363C758.616 750.195 758.322 749.943 758.091 749.628C757.86 749.313 757.734 748.935 757.692 748.557V721.53C757.734 721.908 757.86 722.286 758.091 722.601C758.322 722.916 758.616 723.168 758.973 723.336Z" fill="url(#paint1_linear)"/>
</g>
</g>
<g id="Group_207">
<g id="Group_208">
<path id="Vector_100" d="M758.997 719.677C757.275 720.685 757.254 722.323 758.997 723.331L786.57 739.354C787.557 739.837 788.628 740.11 789.741 740.11C790.833 740.11 791.904 739.837 792.891 739.354L820.632 723.331C822.375 722.323 822.396 720.685 820.632 719.677L793.059 703.654C792.093 703.15 791.001 702.898 789.909 702.898C788.817 702.898 787.746 703.15 786.759 703.654L758.997 719.677Z" fill="white"/>
</g>
</g>
</g>
</g>
</g>
<g id="dash-svg-horbar">
<g id="dash-svg-horbar-4">
<g id="Group_209">
<g id="Group_210">
<g id="Group_211">
<path id="Vector_101" d="M385.889 505.462L385.931 516.632L513.695 590.888L513.651 579.718L385.889 505.462Z" fill="#DB5D34"/>
</g>
</g>
<g id="Group_212">
<g id="Group_213">
<path id="Vector_102" d="M385.888 505.453L513.652 579.709L535.933 566.836L408.169 492.601L385.888 505.453Z" fill="#FF6D3F"/>
</g>
</g>
<g id="Group_214">
<g id="Group_215">
<path id="Vector_103" d="M513.656 579.698L513.698 590.87L535.958 578.018L535.937 566.846L513.656 579.698Z" fill="#DB5D34"/>
</g>
</g>
</g>
</g>
<g id="dash-svg-horbar-3">
<g id="Group_216">
<g id="Group_217">
<g id="Group_218">
<path id="Vector_104" d="M359.322 520.797L359.362 531.969L462.81 592.092L462.766 580.92L359.322 520.797Z" fill="#2A72CA"/>
</g>
</g>
<g id="Group_219">
<g id="Group_220">
<path id="Vector_105" d="M359.319 520.804L462.765 580.927L485.046 568.054L381.6 507.931L359.319 520.804Z" fill="#4F97EF"/>
</g>
</g>
<g id="Group_221">
<g id="Group_222">
<path id="Vector_106" d="M462.773 580.922L462.815 592.094L485.075 579.221L485.054 568.049L462.773 580.922Z" fill="#1159B1"/>
</g>
</g>
</g>
</g>
<g id="dash-svg-horbar-2">
<g id="Group_223">
<g id="Group_224">
<g id="Group_225">
<path id="Vector_107" d="M332.76 536.129L332.802 547.301L411.027 592.766L410.985 581.594L332.76 536.129Z" fill="#909CCC"/>
</g>
</g>
<g id="Group_226">
<g id="Group_227">
<path id="Vector_108" d="M410.994 581.585L411.036 592.776L433.296 579.905L433.254 568.731L410.994 581.585Z" fill="#7783B3"/>
</g>
</g>
<g id="Group_228">
<g id="Group_229">
<path id="Vector_109" d="M332.758 536.123L410.983 581.588L433.264 568.736L355.039 523.271L332.758 536.123Z" fill="#B5C3F2"/>
</g>
</g>
</g>
</g>
<g id="dash-svg-horbar-1">
<g id="Group_230">
<g id="Group_231">
<g id="Group_232">
<path id="Vector_110" d="M306.202 551.468L306.221 562.64L354.733 590.843L354.71 579.65L306.202 551.468Z" fill="#D4EBF8"/>
</g>
</g>
<g id="Group_233">
<g id="Group_234">
<path id="Vector_111" d="M354.709 579.652L354.73 590.845L377.011 577.972L376.969 566.8L354.709 579.652Z" fill="#C6DDEB"/>
</g>
</g>
<g id="Group_235">
<g id="Group_236">
<path id="Vector_112" d="M306.199 551.459L354.709 579.662L376.969 566.789L328.459 538.607L306.199 551.459Z" fill="white"/>
</g>
</g>
</g>
</g>
</g>
<g id="dash-svg-mountains">
<g id="dash-svg-mountains-4">
<g id="Group_237">
<g id="Group_238">
<g id="Group_239">
<path id="Vector_113" d="M639.437 208.943C639.542 208.985 639.626 209.006 639.71 209.069C646.829 196.049 651.575 167.09 660.983 162.008C660.899 162.029 660.836 162.071 660.752 162.092L663.188 160.685L666.548 158.732L670.412 156.485C672.428 155.33 674.675 155.267 677.195 156.716C695.864 167.51 693.785 184.457 707.435 192.311C708.128 192.731 708.863 193.067 709.64 193.319C716.654 180.131 718.124 149.282 726.944 144.221L731.27 141.701L736.121 138.908L736.604 138.614C738.368 137.585 740.447 137.606 742.946 139.034C767.306 153.104 751.808 218.036 792.905 241.745C797.861 244.622 801.851 245.546 805.211 245.189C811.028 238.532 814.682 228.095 821.423 225.365C820.961 225.554 820.541 225.764 820.121 225.995L829.76 220.388C832.889 218.582 836.69 218.456 841.772 221.396C865.124 234.878 866.111 279.629 883.625 289.751C884.423 290.234 885.305 290.57 886.208 290.78C893.558 280.07 898.241 257.999 904.94 254.975C904.814 255.038 904.667 255.08 904.52 255.164L914.159 249.578C914.747 249.2 915.461 248.99 916.175 248.99C916.889 248.99 917.582 249.2 918.191 249.578C933.101 258.188 937.217 380.807 969.998 399.728L960.317 405.335L629.798 214.508L639.437 208.943Z" fill="#FF906B"/>
</g>
</g>
<g id="Group_240">
<g id="Group_241">
<path id="Vector_114" d="M667.534 162.325C686.224 173.119 684.126 190.045 697.776 197.92C719.364 210.394 713.589 133.345 733.245 144.643C757.605 158.713 742.105 223.645 783.202 247.354C812.665 264.364 808.74 213.523 832.071 227.005C855.402 240.466 856.408 285.238 873.922 295.36C891.436 305.461 896.245 248.131 908.509 255.208C923.419 263.818 927.535 386.437 960.316 405.358L629.797 214.531C645.946 223.855 648.865 151.531 667.534 162.325Z" fill="#FF6D3F"/>
</g>
</g>
</g>
</g>
<g id="dash-svg-mountains-3">
<g id="Group_242">
<g id="Group_243">
<g id="Group_244">
<path id="Vector_115" d="M613.147 224.253C624.109 230.574 632.509 230.448 639.586 227.655C644.563 223.98 649.078 219.801 653.824 217.155L653.509 217.323L663.19 211.695C668.776 208.461 674.635 207.243 681.901 211.443C706.471 225.639 718.609 276.711 734.695 285.993C737.761 287.904 741.436 288.576 744.964 287.862C756.682 276.9 765.859 254.094 775.351 250.041C774.952 250.188 774.574 250.377 774.217 250.587L783.898 244.98C786.313 243.573 788.812 243.321 791.332 244.77C806.851 253.737 803.743 271.419 820.144 280.911C820.648 281.205 821.194 281.457 821.761 281.646C826.192 274.716 829.783 263.985 835.558 261.675C835.222 261.801 834.907 261.969 834.592 262.137L844.231 256.53C846.331 255.312 848.704 255.207 851.497 256.845C882.535 274.758 890.662 384.399 943.687 415.059L934.048 420.666L603.529 229.839L613.147 224.253Z" fill="#4F97EF"/>
</g>
</g>
<g id="Group_245">
<g id="Group_246">
<path id="Vector_116" d="M672.232 217.038C696.802 231.234 708.94 282.306 725.026 291.609C750.856 306.519 764.842 240.705 781.663 250.428C797.182 259.374 794.055 277.077 810.456 286.569C824.526 294.696 826.794 253.788 841.851 262.482C872.889 280.395 881.014 390.036 934.039 420.717L603.52 229.89C639.094 250.386 647.662 202.863 672.232 217.038Z" fill="#2A72CA"/>
</g>
</g>
</g>
</g>
<g id="dash-svg-mountains-2">
<g id="Group_247">
<g id="Group_248">
<g id="Group_249">
<path id="Vector_117" d="M580.848 242.65C582.633 243.763 584.626 244.456 586.684 244.708C592.018 237.127 595.273 224.275 602.392 220.768C602.182 220.852 601.993 220.957 601.804 221.062L611.443 215.455C614.425 213.712 618.079 213.649 622.909 216.442C639.478 226.018 639.478 245.422 664.09 259.639C669.928 262.999 674.863 263.797 679.147 262.852C690.865 251.344 697.375 226.711 709.492 221.86C708.883 222.07 708.295 222.343 707.728 222.658L717.367 217.051C721.294 214.762 725.811 214.573 731.334 217.765C757.92 233.095 766.11 330.493 790.491 344.542C818.526 360.754 820.225 342.694 847.609 358.507C875.014 374.341 900.802 427.303 911.386 433.414L901.747 439.021L571.165 248.299L580.848 242.65Z" fill="#B5C3F2"/>
</g>
</g>
<g id="Group_250">
<g id="Group_251">
<path id="Vector_118" d="M721.671 223.467C692.04 206.352 691.41 286.614 654.429 265.257C629.817 251.04 629.817 231.636 613.248 222.081C589.98 208.62 593.76 261.33 571.164 248.31L901.704 439.095C891.141 432.984 865.395 380.022 837.927 364.188C810.48 348.354 808.884 366.435 780.807 350.244C756.447 336.174 748.257 238.797 721.671 223.467Z" fill="#909CCC"/>
</g>
</g>
</g>
</g>
<g id="dash-svg-mountains-1">
<g id="Group_252">
<g id="Group_253">
<g id="Group_254">
<path id="Vector_119" d="M551.679 259.608C604.704 290.226 613.232 257.907 644.291 275.82C659.348 284.514 661.448 300.705 675.497 308.832C691.898 318.303 688.874 309.63 704.372 318.555C721.193 328.257 734.906 362.382 760.736 377.313C776.822 386.595 789.107 378.069 813.698 392.244C838.268 406.419 846.624 429.897 882.198 450.435L872.517 456.042L541.998 265.194L551.679 259.608Z" fill="white"/>
</g>
</g>
<g id="Group_255" opacity="0.3">
<g id="Group_256">
<path id="Vector_120" d="M634.651 281.413C649.708 290.107 651.806 306.277 665.876 314.404C682.277 323.875 679.232 315.223 694.751 324.148C711.551 333.829 725.264 367.975 751.094 382.885C767.18 392.167 779.488 383.641 804.058 397.816C828.628 412.012 836.984 435.469 872.558 456.007L542.039 265.18C595.085 295.798 603.613 263.479 634.651 281.413Z" fill="#428AE2"/>
</g>
</g>
</g>
</g>
</g>
<g id="dash-svg-pie">
<g id="dash-svg-pie-4">
<g id="Group_257">
<g id="Group_258">
<g id="Group_259">
<path id="Vector_121" d="M1053.37 460.36L1053.48 498.897L1065.2 542.596L1065.09 504.063L1053.37 460.36Z" fill="#DB5D34"/>
</g>
</g>
<g id="Group_260">
<g id="Group_261">
<path id="Vector_122" d="M1155.22 521.041L1155.32 559.597L1209.55 528.286L1209.44 489.751L1155.22 521.041Z" fill="#DB5D34"/>
</g>
</g>
<g id="Group_262">
<g id="Group_263">
<path id="Vector_123" d="M1065.09 504.046L1065.19 542.602C1097.11 540.082 1130.48 545.752 1155.32 559.549L1155.22 521.014C1130.38 507.217 1096.99 501.547 1065.09 504.046Z" fill="#DB5D34"/>
</g>
</g>
<g id="Group_264">
<g id="Group_265">
<path id="Vector_124" d="M1053.37 460.361L1065.09 504.062C1096.99 501.542 1130.38 507.233 1155.22 521.009L1209.44 489.719C1166.65 465.422 1112.78 455.321 1053.37 460.361Z" fill="#FF6D3F"/>
</g>
</g>
</g>
</g>
<g id="dash-svg-pie-3">
<g id="Group_266">
<g id="Group_267">
<g id="Group_268">
<path id="Vector_125" d="M950.389 489.751L950.494 528.286L1004.36 559.597L1004.23 521.041L950.389 489.751Z" fill="#0089B1"/>
</g>
</g>
<g id="Group_269">
<g id="Group_270">
<path id="Vector_126" d="M950.388 489.751L1004.21 521.041C1020.36 512.179 1039.91 506.635 1060.39 504.493L1048.69 460.771C1009.92 464.572 978.549 473.833 950.388 489.751Z" fill="#1DD6FD"/>
</g>
</g>
<g id="Group_271">
<g id="Group_272">
<path id="Vector_127" d="M1004.22 521.056L1004.32 559.591C1020.47 550.708 1040.04 545.164 1060.5 543.022L1060.37 504.487C1039.94 506.629 1020.37 512.131 1004.22 521.056Z" fill="#00AFD8"/>
</g>
</g>
</g>
</g>
<g id="dash-svg-pie-2">
<g id="Group_273">
<g id="Group_274">
<g id="Group_275">
<path id="Vector_128" d="M1188.75 604.972C1188.71 592.12 1188.69 579.289 1188.65 566.437C1188.6 550.771 1178.57 535.128 1158.55 522.99L1158.66 561.523C1178.67 573.661 1188.71 589.348 1188.75 604.972Z" fill="#8290BF"/>
</g>
</g>
<g id="Group_276">
<g id="Group_277">
<path id="Vector_129" d="M1265.24 604.831C1265.22 591.979 1265.18 579.148 1265.14 566.296C1265.22 594.289 1246.34 621.904 1210.3 642.715C1196.07 650.779 1180.95 657.205 1165.26 661.846L1165.36 700.381C1181.05 695.74 1196.17 689.335 1210.41 681.25C1246.45 660.439 1265.32 632.824 1265.24 604.831Z" fill="#8290BF"/>
</g>
</g>
<g id="Group_278">
<g id="Group_279">
<path id="Vector_130" d="M1130.82 622.43L1130.93 660.962L1165.37 700.382L1165.27 661.844L1130.82 622.43Z" fill="#6977A5"/>
</g>
</g>
<g id="Group_280">
<g id="Group_281">
<path id="Vector_131" d="M1158.56 522.979C1199.39 547.759 1198.65 587.071 1156.42 611.431C1148.32 616.03 1139.75 619.726 1130.82 622.435L1165.26 661.852C1180.95 657.211 1196.07 650.806 1210.31 642.721C1267.49 609.709 1281.46 559.582 1245.06 517.918C1236.12 507.691 1226.39 499.795 1212.77 491.689L1158.56 522.979Z" fill="#A8B5E4"/>
</g>
</g>
</g>
</g>
<g id="dash-svg-pie-1">
<g id="Group_282">
<g id="Group_283">
<g id="Group_284">
<path id="Vector_132" d="M970.313 567.048C970.355 579.9 970.376 592.752 970.418 605.583C970.418 589.728 980.582 573.831 1000.99 561.546L1000.87 522.99C980.456 535.296 970.271 551.172 970.313 567.048Z" fill="#1C64BC"/>
</g>
</g>
<g id="Group_285">
<g id="Group_286">
<path id="Vector_133" d="M893.999 567.234C894.041 580.065 894.062 592.917 894.104 605.769C894.188 633.111 912.122 660.432 947.948 681.243C1005.11 714.465 1088.56 722.424 1161.14 701.613L1161.04 663.078C1088.44 683.847 1005.01 675.93 947.843 642.708C912.017 621.897 894.083 594.576 893.999 567.234Z" fill="#1C64BC"/>
</g>
</g>
<g id="Group_287">
<g id="Group_288">
<path id="Vector_134" d="M947.024 491.657C876.086 533.636 876.296 601.088 947.822 642.668C1004.98 675.89 1088.44 683.849 1161.04 663.059L1126.57 623.642C1085.88 635.003 1035.62 630.908 1002.02 611.399C960.044 587.018 959.771 547.706 1000.87 522.947L947.024 491.657Z" fill="#428AE2"/>
</g>
</g>
</g>
</g>
</g>
</g>
</g>
<defs>
<filter id="filter0_d" x="45" y="137" width="1570.4" height="1120.02" filterUnits="userSpaceOnUse" color-interpolation-filters="sRGB">
<feFlood flood-opacity="0" result="BackgroundImageFix"/>
<feColorMatrix in="SourceAlpha" type="matrix" values="0 0 0 0 0 0 0 0 0 0 0 0 0 0 0 0 0 0 127 0" result="hardAlpha"/>
<feOffset dy="4"/>
<feGaussianBlur stdDeviation="2"/>
<feComposite in2="hardAlpha" operator="out"/>
<feColorMatrix type="matrix" values="0 0 0 0 0 0 0 0 0 0 0 0 0 0 0 0 0 0 0.25 0"/>
<feBlend mode="normal" in2="BackgroundImageFix" result="effect1_dropShadow"/>
<feBlend mode="normal" in="SourceGraphic" in2="effect1_dropShadow" result="shape"/>
</filter>
<filter id="filter1_f" x="46.9" y="344.849" width="1566.6" height="906.276" filterUnits="userSpaceOnUse" color-interpolation-filters="sRGB">
<feFlood flood-opacity="0" result="BackgroundImageFix"/>
<feBlend mode="normal" in="SourceGraphic" in2="BackgroundImageFix" result="shape"/>
<feGaussianBlur stdDeviation="1.05" result="effect1_foregroundBlur"/>
</filter>
<linearGradient id="paint0_linear" x1="744.976" y1="709.652" x2="738.519" y2="709.652" gradientUnits="userSpaceOnUse">
<stop stop-color="#044CA4"/>
<stop offset="0.5" stop-color="#1158B0"/>
<stop offset="1" stop-color="#1D65BD"/>
</linearGradient>
<linearGradient id="paint1_linear" x1="792.993" y1="744.31" x2="786.535" y2="744.31" gradientUnits="userSpaceOnUse">
<stop stop-color="#C7DEEB"/>
<stop offset="0.5" stop-color="#CEE4F1"/>
<stop offset="1" stop-color="#D4EBF8"/>
</linearGradient>
<clipPath id="clip0">
<rect width="1611" height="1287" fill="white"/>
</clipPath>
</defs>
</svg>
