<svg width="1024" height="420" viewBox="0 0 1024 420" fill="none" xmlns="http://www.w3.org/2000/svg">
<g clip-path="url(#clip0)">
<path d="M146.705 0.000201169C132.223 -0.327275 117.261 1.36543 101.939 5.19402C31.0856 22.8926 -48.2266 114.037 38.3767 219.13L90.0676 281.703L104.66 299.511C114.454 311.155 130.48 310.947 142.253 301.242C154.085 291.487 157.449 275.49 147.694 263.649C147.682 263.632 143.558 258.641 141.759 256.476H142.006C138.27 251.982 137.459 251.228 133.597 246.583C114.889 224.084 93.5302 198.107 93.5302 198.107C55.9269 152.471 72.7054 96.0909 123.704 64.0574C168.638 35.8326 251.096 45.9136 279.518 92.2524C261.618 39.4182 209.462 1.41926 146.705 0.000201169ZM157.093 110.307C150.411 110.08 143.435 112.627 137.554 117.48C125.702 127.244 122.368 143.261 132.113 155.073C132.133 155.103 133.31 156.567 135.328 159.03C157.745 185.962 187.514 222.098 187.514 222.098C225.127 267.734 208.338 323.867 157.34 355.901C112.416 384.116 29.9479 374.015 1.52529 327.706C23.557 392.703 97.3983 435.193 179.105 414.764C249.978 397.036 329.27 306.149 242.667 201.075L182.072 127.867L175.147 119.211C170.25 113.389 163.774 110.535 157.093 110.307Z" fill="white"/>
<path d="M424.204 49.9597C379.339 49.9597 327.994 73.0994 327.994 128.856C327.994 181.932 370.208 196.831 412.085 207.011C454.466 217.191 496.423 223.087 496.423 258.455C496.423 293.298 460.531 299.758 434.097 299.758C399.204 299.758 366.33 287.065 364.846 246.336H322.553C325.027 314.944 373.789 340.072 431.624 340.072C483.987 340.072 541.436 318.723 541.436 252.766C541.436 199.156 499.47 184.059 457.098 173.869C417.724 163.69 372.76 158.337 372.76 125.641C372.76 97.7627 402.241 90.2737 427.666 90.2737C455.604 90.2737 484.512 101.384 487.519 136.771H529.812C526.329 69.2214 481.039 49.9597 424.204 49.9597ZM668.561 49.9597C611.211 49.9597 561.716 74.0986 559.243 142.707H601.536C603.534 101.967 629.948 90.2737 665.84 90.2737C692.779 90.2737 723.22 96.6052 723.22 136.276C723.22 170.585 683.529 167.429 636.656 177.085C592.8 186.196 549.35 199.68 549.35 262.412C549.35 317.634 587.794 340.072 634.677 340.072C670.539 340.072 701.772 326.509 725.198 297.037C725.198 327.043 739.365 340.072 761.308 340.072C774.752 340.072 784.002 337.223 791.481 332.405V297.037C786.001 299.184 782.103 299.758 778.62 299.758C765.166 299.758 765.265 290.3 765.265 268.842V126.136C765.265 61.2773 714.929 49.9597 668.561 49.9597ZM890.164 49.9597C845.299 49.9597 793.954 73.0994 793.954 128.856C793.954 181.932 836.425 196.831 878.292 207.011C920.684 217.191 962.63 223.087 962.63 258.455C962.63 293.298 926.728 299.758 900.304 299.758C865.402 299.758 832.537 287.065 831.053 246.336H788.513C790.996 314.944 840.006 340.072 897.831 340.072C950.165 340.072 1007.4 318.723 1007.4 252.766C1007.4 199.156 965.43 184.059 923.058 173.869C883.694 163.69 838.968 158.337 838.968 125.641C838.968 97.7627 868.201 90.2737 893.626 90.2737C921.535 90.2737 950.462 101.384 953.479 136.771H996.019C992.547 69.2214 947.019 49.9597 890.164 49.9597ZM722.725 190.44V237.185C722.725 262.382 699.922 299.758 644.076 299.758C618.176 299.758 594.116 288.984 594.116 258.949C594.116 225.184 618.156 214.599 646.054 209.237C674.477 203.885 706.283 203.301 722.725 190.44ZM303.015 311.877C294.071 311.877 286.444 318.822 286.444 328.2C286.444 337.618 294.071 344.524 303.015 344.524C311.879 344.524 319.338 337.618 319.338 328.2C319.338 318.822 311.879 311.877 303.015 311.877ZM1006.9 311.877C997.928 311.877 990.33 318.832 990.33 328.2C990.33 337.628 997.928 344.524 1006.9 344.524C1015.76 344.524 1023.47 337.628 1023.47 328.2C1023.47 318.832 1015.76 311.877 1006.9 311.877ZM303.015 314.597C310.355 314.597 316.123 320.454 316.123 328.2C316.123 336.016 310.355 341.803 303.015 341.803C295.535 341.803 289.659 336.016 289.659 328.2C289.659 320.454 295.536 314.597 303.015 314.597ZM1006.9 314.597C1014.24 314.597 1020.26 320.464 1020.26 328.2C1020.26 336.026 1014.24 341.803 1006.9 341.803C999.412 341.803 993.793 336.026 993.793 328.2C993.793 320.464 999.412 314.597 1006.9 314.597ZM296.584 318.802V337.599H299.552V329.437H302.767L307.714 337.599H310.929L305.488 329.19C308.278 328.873 310.434 327.617 310.434 324.243C310.434 320.523 308.228 318.802 303.757 318.802H296.584ZM1000.72 318.802V337.599H1003.44V329.437H1006.9L1011.85 337.599H1015.06L1009.62 329.19C1012.36 328.883 1014.57 327.617 1014.57 324.243C1014.57 320.523 1012.33 318.802 1007.89 318.802H1000.72ZM299.552 321.275H303.509C305.468 321.275 307.466 321.661 307.466 323.996C307.466 326.865 305.458 326.964 303.015 326.964H299.552V321.275ZM1003.44 321.275H1007.4C1009.39 321.275 1011.6 321.651 1011.6 323.996C1011.6 326.865 1009.33 326.964 1006.9 326.964H1003.44V321.275Z" fill="white"/>
</g>
<defs>
<clipPath id="clip0">
<rect width="1024" height="420" fill="white"/>
</clipPath>
</defs>
</svg>
